<svg xmlns="http://www.w3.org/2000/svg" version="1.1" xmlns:xlink="http://www.w3.org/1999/xlink" xmlns:svgjs="http://svgjs.dev/svgjs" width="1920" height="1680" preserveAspectRatio="none" viewBox="0 0 1920 1680">
    <g mask="url(&quot;#SvgjsMask1169&quot;)" fill="none">
        <rect width="1920" height="1680" x="0" y="0" fill="#0e2a47"></rect>
        <g mask="url(&quot;#SvgjsMask1171&quot;)">
            <path d="M923 429L949 455M923 325L949 351L949 377L949 403M923 299L949 325M949 507L975 533L975 559M949 221L923 247L923 273L897 299M949 39L975 65L975 91L975 117L975 143L975 169L975 195M949 -13L949 13L949 39L949 65L949 91L949 117L949 143L949 169L949 195L949 221L949 247L949 273L923 299L923 325L923 351L923 377L923 403L923 429L923 455L923 481L949 507L949 533L949 559L949 585" stroke="url(&quot;#SvgjsLinearGradient1170&quot;)" stroke-width="4.33"></path>
            <path d="M942.5 585 a6.5 6.5 0 1 0 13 0 a6.5 6.5 0 1 0 -13 0zM942.5 455 a6.5 6.5 0 1 0 13 0 a6.5 6.5 0 1 0 -13 0zM942.5 403 a6.5 6.5 0 1 0 13 0 a6.5 6.5 0 1 0 -13 0zM942.5 325 a6.5 6.5 0 1 0 13 0 a6.5 6.5 0 1 0 -13 0zM968.5 559 a6.5 6.5 0 1 0 13 0 a6.5 6.5 0 1 0 -13 0zM890.5 299 a6.5 6.5 0 1 0 13 0 a6.5 6.5 0 1 0 -13 0zM968.5 195 a6.5 6.5 0 1 0 13 0 a6.5 6.5 0 1 0 -13 0z" fill="url(&quot;#SvgjsLinearGradient1170&quot;)"></path>
            <path d="M1001 247L1027 273L1027 299M1001 143L1027 169M1001 221L1027 247L1053 273L1053 299L1053 325L1053 351M1001 325L975 351L975 377L975 403L975 429M975 -13L1001 13L1001 39L1001 65L1001 91L1001 117L1001 143L1001 169L1001 195L1001 221L1001 247L1001 273L1001 299L1001 325L1001 351L1001 377L1001 403" stroke="url(&quot;#SvgjsLinearGradient1170&quot;)" stroke-width="4.33"></path>
            <path d="M994.5 403 a6.5 6.5 0 1 0 13 0 a6.5 6.5 0 1 0 -13 0zM1020.5 299 a6.5 6.5 0 1 0 13 0 a6.5 6.5 0 1 0 -13 0zM1020.5 169 a6.5 6.5 0 1 0 13 0 a6.5 6.5 0 1 0 -13 0zM1046.5 351 a6.5 6.5 0 1 0 13 0 a6.5 6.5 0 1 0 -13 0zM968.5 429 a6.5 6.5 0 1 0 13 0 a6.5 6.5 0 1 0 -13 0z" fill="url(&quot;#SvgjsLinearGradient1170&quot;)"></path>
            <path d="M923 117L923 143L923 169M897 169L897 195M923 -13L923 13L923 39L923 65L923 91L923 117L897 143L897 169L923 195" stroke="url(&quot;#SvgjsLinearGradient1170&quot;)" stroke-width="4.33"></path>
            <path d="M916.5 195 a6.5 6.5 0 1 0 13 0 a6.5 6.5 0 1 0 -13 0zM916.5 169 a6.5 6.5 0 1 0 13 0 a6.5 6.5 0 1 0 -13 0zM890.5 195 a6.5 6.5 0 1 0 13 0 a6.5 6.5 0 1 0 -13 0z" fill="url(&quot;#SvgjsLinearGradient1170&quot;)"></path>
            <path d="M1105 559L1079 585L1053 611L1053 637L1053 663L1053 689M1053 91L1053 117L1027 143M1079 1053L1053 1079L1053 1105L1053 1131L1053 1157L1053 1183L1053 1209L1053 1235L1053 1261L1053 1287L1053 1313L1053 1339L1053 1365L1053 1391L1053 1417L1053 1443L1053 1469L1053 1495L1053 1521L1053 1547M1105 793L1131 819L1131 845L1131 871L1131 897L1131 923L1131 949L1131 975L1131 1001L1131 1027L1131 1053L1131 1079L1131 1105L1131 1131M1105 429L1131 455L1131 481L1131 507L1131 533M1105 273L1079 299M1053 39L1027 65L1027 91L1027 117M1105 897L1079 923L1079 949L1079 975L1079 1001L1053 1027L1027 1053L1027 1079L1027 1105L1027 1131L1027 1157L1027 1183L1027 1209L1027 1235L1027 1261L1027 1287L1027 1313L1027 1339L1027 1365L1027 1391M1105 689L1079 715M1079 247L1079 273M1079 169L1053 195L1053 221L1053 247M1001 -13L1027 13L1053 39L1053 65L1053 91L1079 117L1079 143L1079 169L1079 195L1079 221L1079 247L1105 273L1105 299L1105 325L1105 351L1105 377L1105 403L1105 429L1105 455L1105 481L1105 507L1105 533L1105 559L1105 585L1105 611L1105 637L1105 663L1105 689L1105 715L1105 741L1105 767L1105 793L1105 819L1105 845L1105 871L1105 897L1105 923L1105 949L1105 975L1105 1001L1079 1027L1079 1053L1079 1079L1105 1105L1105 1131" stroke="url(&quot;#SvgjsLinearGradient1170&quot;)" stroke-width="4.33"></path>
            <path d="M1098.5 1131 a6.5 6.5 0 1 0 13 0 a6.5 6.5 0 1 0 -13 0zM1046.5 689 a6.5 6.5 0 1 0 13 0 a6.5 6.5 0 1 0 -13 0zM1020.5 143 a6.5 6.5 0 1 0 13 0 a6.5 6.5 0 1 0 -13 0zM1046.5 1547 a6.5 6.5 0 1 0 13 0 a6.5 6.5 0 1 0 -13 0zM1124.5 1131 a6.5 6.5 0 1 0 13 0 a6.5 6.5 0 1 0 -13 0zM1124.5 533 a6.5 6.5 0 1 0 13 0 a6.5 6.5 0 1 0 -13 0zM1072.5 299 a6.5 6.5 0 1 0 13 0 a6.5 6.5 0 1 0 -13 0zM1020.5 117 a6.5 6.5 0 1 0 13 0 a6.5 6.5 0 1 0 -13 0zM1020.5 1391 a6.5 6.5 0 1 0 13 0 a6.5 6.5 0 1 0 -13 0zM1072.5 715 a6.5 6.5 0 1 0 13 0 a6.5 6.5 0 1 0 -13 0zM1072.5 273 a6.5 6.5 0 1 0 13 0 a6.5 6.5 0 1 0 -13 0zM1046.5 247 a6.5 6.5 0 1 0 13 0 a6.5 6.5 0 1 0 -13 0z" fill="url(&quot;#SvgjsLinearGradient1170&quot;)"></path>
            <path d="M897 767L923 793L923 819M897 585L923 611L923 637L923 663M897 325L871 351M897 611L871 637L871 663L871 689L871 715L845 741L845 767L845 793M871 195L845 221M897 715L923 741L923 767L949 793L949 819L923 845L923 871L923 897L923 923L923 949M871 247L845 273L845 299L845 325L845 351M871 221L897 247M897 -13L897 13L897 39L897 65L897 91L897 117L871 143L871 169L871 195L871 221L871 247L871 273L871 299L897 325L897 351L897 377L897 403L897 429L897 455L897 481L897 507L897 533L897 559L897 585L897 611L897 637L897 663L897 689L897 715L897 741L897 767L897 793" stroke="url(&quot;#SvgjsLinearGradient1170&quot;)" stroke-width="4.33"></path>
            <path d="M890.5 793 a6.5 6.5 0 1 0 13 0 a6.5 6.5 0 1 0 -13 0zM916.5 819 a6.5 6.5 0 1 0 13 0 a6.5 6.5 0 1 0 -13 0zM916.5 663 a6.5 6.5 0 1 0 13 0 a6.5 6.5 0 1 0 -13 0zM864.5 351 a6.5 6.5 0 1 0 13 0 a6.5 6.5 0 1 0 -13 0zM838.5 793 a6.5 6.5 0 1 0 13 0 a6.5 6.5 0 1 0 -13 0zM838.5 221 a6.5 6.5 0 1 0 13 0 a6.5 6.5 0 1 0 -13 0zM916.5 949 a6.5 6.5 0 1 0 13 0 a6.5 6.5 0 1 0 -13 0zM838.5 351 a6.5 6.5 0 1 0 13 0 a6.5 6.5 0 1 0 -13 0zM890.5 247 a6.5 6.5 0 1 0 13 0 a6.5 6.5 0 1 0 -13 0z" fill="url(&quot;#SvgjsLinearGradient1170&quot;)"></path>
            <path d="M1131 377L1131 403L1131 429M1157 507L1183 533L1183 559L1183 585L1183 611M1131 559L1157 585L1157 611M1131 689L1157 715L1183 741M1157 429L1183 455L1183 481L1183 507M1157 403L1183 429M1131 663L1157 689L1183 715L1209 741M1157 819L1183 845L1209 871M1027 -13L1053 13L1079 39L1079 65L1079 91L1105 117L1105 143L1105 169L1105 195L1105 221L1105 247L1131 273L1131 299L1131 325L1131 351L1131 377L1157 403L1157 429L1157 455L1157 481L1157 507L1157 533L1131 559L1131 585L1131 611L1131 637L1131 663L1131 689L1131 715L1157 741L1157 767L1157 793L1157 819L1157 845" stroke="url(&quot;#SvgjsLinearGradient1170&quot;)" stroke-width="4.33"></path>
            <path d="M1150.5 845 a6.5 6.5 0 1 0 13 0 a6.5 6.5 0 1 0 -13 0zM1124.5 429 a6.5 6.5 0 1 0 13 0 a6.5 6.5 0 1 0 -13 0zM1176.5 611 a6.5 6.5 0 1 0 13 0 a6.5 6.5 0 1 0 -13 0zM1150.5 611 a6.5 6.5 0 1 0 13 0 a6.5 6.5 0 1 0 -13 0zM1176.5 741 a6.5 6.5 0 1 0 13 0 a6.5 6.5 0 1 0 -13 0zM1176.5 507 a6.5 6.5 0 1 0 13 0 a6.5 6.5 0 1 0 -13 0zM1176.5 429 a6.5 6.5 0 1 0 13 0 a6.5 6.5 0 1 0 -13 0zM1202.5 741 a6.5 6.5 0 1 0 13 0 a6.5 6.5 0 1 0 -13 0zM1202.5 871 a6.5 6.5 0 1 0 13 0 a6.5 6.5 0 1 0 -13 0z" fill="url(&quot;#SvgjsLinearGradient1170&quot;)"></path>
            <path d="M767 975L793 1001L793 1027L819 1053L819 1079M767 611L793 637L819 663L819 689L819 715L819 741M715 1209L741 1235L741 1261L741 1287L767 1313L767 1339L767 1365M767 897L793 923L793 949M741 1573L715 1599L715 1625M767 689L741 715L741 741L741 767M767 715L793 741L793 767L793 793L793 819L793 845L793 871L793 897L819 923L819 949L819 975L819 1001L819 1027L845 1053L845 1079L845 1105L845 1131M819 403L793 429L767 455M715 1261L689 1287M819 377L793 403L767 429L741 455L741 481M767 585L741 611L715 637L715 663L715 689L715 715M767 923L741 949L741 975L741 1001L741 1027L741 1053L715 1079L715 1105L715 1131L715 1157L715 1183M767 637L741 663L741 689M741 1131L767 1157L767 1183L767 1209L767 1235L767 1261L767 1287M767 1053L767 1079L767 1105L767 1131L793 1157L793 1183M871 -13L871 13L871 39L871 65L871 91L871 117L845 143L819 169L819 195L819 221L819 247L819 273L819 299L819 325L819 351L819 377L819 403L819 429L793 455L793 481L793 507L793 533L767 559L767 585L767 611L767 637L767 663L767 689L767 715L767 741L767 767L767 793L767 819L767 845L767 871L767 897L767 923L767 949L767 975L767 1001L767 1027L767 1053L741 1079L741 1105L741 1131L741 1157L741 1183L715 1209L715 1235L715 1261L715 1287L741 1313L741 1339L741 1365L741 1391L741 1417L741 1443L741 1469L741 1495L741 1521L741 1547L741 1573L741 1599" stroke="url(&quot;#SvgjsLinearGradient1170&quot;)" stroke-width="4.33"></path>
            <path d="M734.5 1599 a6.5 6.5 0 1 0 13 0 a6.5 6.5 0 1 0 -13 0zM812.5 1079 a6.5 6.5 0 1 0 13 0 a6.5 6.5 0 1 0 -13 0zM812.5 741 a6.5 6.5 0 1 0 13 0 a6.5 6.5 0 1 0 -13 0zM760.5 1365 a6.5 6.5 0 1 0 13 0 a6.5 6.5 0 1 0 -13 0zM786.5 949 a6.5 6.5 0 1 0 13 0 a6.5 6.5 0 1 0 -13 0zM708.5 1625 a6.5 6.5 0 1 0 13 0 a6.5 6.5 0 1 0 -13 0zM734.5 767 a6.5 6.5 0 1 0 13 0 a6.5 6.5 0 1 0 -13 0zM838.5 1131 a6.5 6.5 0 1 0 13 0 a6.5 6.5 0 1 0 -13 0zM760.5 455 a6.5 6.5 0 1 0 13 0 a6.5 6.5 0 1 0 -13 0zM682.5 1287 a6.5 6.5 0 1 0 13 0 a6.5 6.5 0 1 0 -13 0zM734.5 481 a6.5 6.5 0 1 0 13 0 a6.5 6.5 0 1 0 -13 0zM708.5 715 a6.5 6.5 0 1 0 13 0 a6.5 6.5 0 1 0 -13 0zM708.5 1183 a6.5 6.5 0 1 0 13 0 a6.5 6.5 0 1 0 -13 0zM734.5 689 a6.5 6.5 0 1 0 13 0 a6.5 6.5 0 1 0 -13 0zM760.5 1287 a6.5 6.5 0 1 0 13 0 a6.5 6.5 0 1 0 -13 0zM786.5 1183 a6.5 6.5 0 1 0 13 0 a6.5 6.5 0 1 0 -13 0z" fill="url(&quot;#SvgjsLinearGradient1170&quot;)"></path>
            <path d="M1053 -13L1079 13L1105 39L1105 65L1105 91L1131 117L1131 143L1131 169L1131 195L1131 221L1131 247L1157 273" stroke="url(&quot;#SvgjsLinearGradient1170&quot;)" stroke-width="4.33"></path>
            <path d="M1150.5 273 a6.5 6.5 0 1 0 13 0 a6.5 6.5 0 1 0 -13 0z" fill="url(&quot;#SvgjsLinearGradient1170&quot;)"></path>
            <path d="M845 -13L845 13L845 39L845 65L845 91L845 117" stroke="url(&quot;#SvgjsLinearGradient1170&quot;)" stroke-width="4.33"></path>
            <path d="M838.5 117 a6.5 6.5 0 1 0 13 0 a6.5 6.5 0 1 0 -13 0z" fill="url(&quot;#SvgjsLinearGradient1170&quot;)"></path>
            <path d="M1209 377L1235 403M1183 351L1183 377L1183 403M1209 507L1209 533L1209 559L1209 585L1209 611M1209 455L1235 481L1235 507M1261 663L1235 689L1235 715M1209 429L1235 455M1261 715L1261 741L1261 767L1261 793L1261 819L1261 845L1287 871L1287 897L1287 923L1287 949L1287 975L1287 1001L1287 1027L1287 1053M1183 221L1157 247M1235 845L1235 871L1235 897M1079 -13L1105 13L1131 39L1131 65L1131 91L1157 117L1157 143L1157 169L1183 195L1183 221L1183 247L1183 273L1183 299L1183 325L1183 351L1209 377L1209 403L1209 429L1209 455L1209 481L1209 507L1235 533L1235 559L1235 585L1235 611L1235 637L1261 663L1261 689L1261 715L1235 741L1235 767L1235 793L1235 819L1235 845L1261 871L1261 897" stroke="url(&quot;#SvgjsLinearGradient1170&quot;)" stroke-width="4.33"></path>
            <path d="M1254.5 897 a6.5 6.5 0 1 0 13 0 a6.5 6.5 0 1 0 -13 0zM1228.5 403 a6.5 6.5 0 1 0 13 0 a6.5 6.5 0 1 0 -13 0zM1176.5 403 a6.5 6.5 0 1 0 13 0 a6.5 6.5 0 1 0 -13 0zM1202.5 611 a6.5 6.5 0 1 0 13 0 a6.5 6.5 0 1 0 -13 0zM1228.5 507 a6.5 6.5 0 1 0 13 0 a6.5 6.5 0 1 0 -13 0zM1228.5 715 a6.5 6.5 0 1 0 13 0 a6.5 6.5 0 1 0 -13 0zM1228.5 455 a6.5 6.5 0 1 0 13 0 a6.5 6.5 0 1 0 -13 0zM1280.5 1053 a6.5 6.5 0 1 0 13 0 a6.5 6.5 0 1 0 -13 0zM1150.5 247 a6.5 6.5 0 1 0 13 0 a6.5 6.5 0 1 0 -13 0zM1228.5 897 a6.5 6.5 0 1 0 13 0 a6.5 6.5 0 1 0 -13 0z" fill="url(&quot;#SvgjsLinearGradient1170&quot;)"></path>
            <path d="M793 299L767 325L741 351L741 377M793 273L767 299L741 325M819 -13L819 13L819 39L819 65L819 91L819 117L819 143L793 169L793 195L793 221L793 247L793 273L793 299L793 325L793 351" stroke="url(&quot;#SvgjsLinearGradient1170&quot;)" stroke-width="4.33"></path>
            <path d="M786.5 351 a6.5 6.5 0 1 0 13 0 a6.5 6.5 0 1 0 -13 0zM734.5 377 a6.5 6.5 0 1 0 13 0 a6.5 6.5 0 1 0 -13 0zM734.5 325 a6.5 6.5 0 1 0 13 0 a6.5 6.5 0 1 0 -13 0z" fill="url(&quot;#SvgjsLinearGradient1170&quot;)"></path>
            <path d="M1209 273L1235 299L1235 325M1209 221L1235 247L1235 273M1105 -13L1131 13L1157 39L1157 65L1157 91L1183 117L1183 143L1183 169L1209 195L1209 221L1209 247L1209 273L1209 299" stroke="url(&quot;#SvgjsLinearGradient1170&quot;)" stroke-width="4.33"></path>
            <path d="M1202.5 299 a6.5 6.5 0 1 0 13 0 a6.5 6.5 0 1 0 -13 0zM1228.5 325 a6.5 6.5 0 1 0 13 0 a6.5 6.5 0 1 0 -13 0zM1228.5 273 a6.5 6.5 0 1 0 13 0 a6.5 6.5 0 1 0 -13 0z" fill="url(&quot;#SvgjsLinearGradient1170&quot;)"></path>
            <path d="M793 65L767 91L767 117L767 143M793 39L767 65M793 -13L793 13L793 39L793 65L793 91L793 117L793 143L767 169L767 195L767 221" stroke="url(&quot;#SvgjsLinearGradient1170&quot;)" stroke-width="4.33"></path>
            <path d="M760.5 221 a6.5 6.5 0 1 0 13 0 a6.5 6.5 0 1 0 -13 0zM760.5 143 a6.5 6.5 0 1 0 13 0 a6.5 6.5 0 1 0 -13 0zM760.5 65 a6.5 6.5 0 1 0 13 0 a6.5 6.5 0 1 0 -13 0z" fill="url(&quot;#SvgjsLinearGradient1170&quot;)"></path>
            <path d="M1131 -13L1157 13" stroke="url(&quot;#SvgjsLinearGradient1170&quot;)" stroke-width="4.33"></path>
            <path d="M1150.5 13 a6.5 6.5 0 1 0 13 0 a6.5 6.5 0 1 0 -13 0z" fill="url(&quot;#SvgjsLinearGradient1170&quot;)"></path>
            <path d="M741 273L741 299M767 13L767 39M741 247L767 273M767 -13L767 13L741 39L741 65L741 91L741 117L741 143L741 169L741 195L741 221L741 247L741 273L715 299L715 325" stroke="url(&quot;#SvgjsLinearGradient1170&quot;)" stroke-width="4.33"></path>
            <path d="M708.5 325 a6.5 6.5 0 1 0 13 0 a6.5 6.5 0 1 0 -13 0zM734.5 299 a6.5 6.5 0 1 0 13 0 a6.5 6.5 0 1 0 -13 0zM760.5 39 a6.5 6.5 0 1 0 13 0 a6.5 6.5 0 1 0 -13 0zM760.5 273 a6.5 6.5 0 1 0 13 0 a6.5 6.5 0 1 0 -13 0z" fill="url(&quot;#SvgjsLinearGradient1170&quot;)"></path>
            <path d="M1261 351L1235 377M1235 195L1235 221M1157 -13L1183 13L1183 39L1183 65L1183 91L1209 117L1209 143L1209 169L1235 195L1261 221L1261 247L1261 273L1261 299L1261 325L1261 351L1261 377L1261 403L1261 429L1261 455L1261 481L1261 507L1261 533L1261 559L1261 585L1261 611L1261 637L1287 663L1287 689L1287 715L1287 741" stroke="url(&quot;#SvgjsLinearGradient1170&quot;)" stroke-width="4.33"></path>
            <path d="M1280.5 741 a6.5 6.5 0 1 0 13 0 a6.5 6.5 0 1 0 -13 0zM1228.5 377 a6.5 6.5 0 1 0 13 0 a6.5 6.5 0 1 0 -13 0zM1228.5 221 a6.5 6.5 0 1 0 13 0 a6.5 6.5 0 1 0 -13 0z" fill="url(&quot;#SvgjsLinearGradient1170&quot;)"></path>
            <path d="M715 247L689 273M663 767L689 793L689 819L689 845L689 871L689 897L689 923L689 949L689 975M637 1157L663 1183L663 1209L663 1235L663 1261L663 1287L663 1313L663 1339L663 1365L663 1391M663 663L689 689L689 715L689 741L689 767L715 793L715 819M637 1261L611 1287L611 1313M637 845L611 871L611 897L611 923L611 949L611 975L611 1001L611 1027L611 1053L611 1079L611 1105L611 1131L611 1157L611 1183L611 1209M689 325L689 351L689 377L689 403L689 429L689 455L689 481L689 507L689 533L689 559L715 585L715 611M663 741L637 767L637 793L637 819L611 845M637 1027L637 1053L637 1079L637 1105M663 455L637 481M715 169L689 195M637 975L663 1001L663 1027M715 143L689 169M663 429L637 455M741 -13L741 13L715 39L715 65L715 91L715 117L715 143L715 169L715 195L715 221L715 247L715 273L689 299L689 325L663 351L663 377L663 403L663 429L663 455L663 481L663 507L663 533L663 559L663 585L663 611L663 637L663 663L663 689L663 715L663 741L663 767L663 793L663 819L637 845L637 871L637 897L637 923L637 949L637 975L637 1001L637 1027L663 1053L663 1079L663 1105L637 1131L637 1157L637 1183L637 1209L637 1235L637 1261L637 1287L637 1313L637 1339L637 1365L637 1391L637 1417" stroke="url(&quot;#SvgjsLinearGradient1170&quot;)" stroke-width="4.33"></path>
            <path d="M630.5 1417 a6.5 6.5 0 1 0 13 0 a6.5 6.5 0 1 0 -13 0zM682.5 273 a6.5 6.5 0 1 0 13 0 a6.5 6.5 0 1 0 -13 0zM682.5 975 a6.5 6.5 0 1 0 13 0 a6.5 6.5 0 1 0 -13 0zM656.5 1391 a6.5 6.5 0 1 0 13 0 a6.5 6.5 0 1 0 -13 0zM708.5 819 a6.5 6.5 0 1 0 13 0 a6.5 6.5 0 1 0 -13 0zM604.5 1313 a6.5 6.5 0 1 0 13 0 a6.5 6.5 0 1 0 -13 0zM604.5 1209 a6.5 6.5 0 1 0 13 0 a6.5 6.5 0 1 0 -13 0zM708.5 611 a6.5 6.5 0 1 0 13 0 a6.5 6.5 0 1 0 -13 0zM604.5 845 a6.5 6.5 0 1 0 13 0 a6.5 6.5 0 1 0 -13 0zM630.5 1105 a6.5 6.5 0 1 0 13 0 a6.5 6.5 0 1 0 -13 0zM630.5 481 a6.5 6.5 0 1 0 13 0 a6.5 6.5 0 1 0 -13 0zM682.5 195 a6.5 6.5 0 1 0 13 0 a6.5 6.5 0 1 0 -13 0zM656.5 1027 a6.5 6.5 0 1 0 13 0 a6.5 6.5 0 1 0 -13 0zM682.5 169 a6.5 6.5 0 1 0 13 0 a6.5 6.5 0 1 0 -13 0zM630.5 455 a6.5 6.5 0 1 0 13 0 a6.5 6.5 0 1 0 -13 0z" fill="url(&quot;#SvgjsLinearGradient1170&quot;)"></path>
            <path d="M1287 351L1313 377L1313 403L1313 429L1313 455L1313 481L1313 507L1313 533L1313 559L1313 585L1313 611L1313 637L1339 663L1339 689L1339 715L1339 741M1339 793L1313 819L1313 845M1339 1261L1365 1287L1365 1313L1365 1339L1365 1365L1365 1391L1365 1417L1365 1443L1365 1469L1365 1495L1365 1521M1339 1183L1365 1209L1365 1235L1365 1261L1391 1287M1365 1001L1391 1027L1391 1053L1391 1079L1391 1105M1365 949L1339 975L1339 1001L1339 1027M1339 1287L1313 1313M1365 897L1391 923L1391 949L1391 975M1339 1209L1313 1235L1313 1261L1313 1287L1287 1313M1339 845L1339 871M1365 1053L1365 1079L1365 1105L1365 1131L1365 1157L1365 1183L1391 1209L1391 1235M1235 143L1261 169M1339 1313L1339 1339M1339 1157L1313 1183L1313 1209M1183 -13L1209 13L1209 39L1209 65L1209 91L1235 117L1235 143L1235 169L1261 195L1287 221L1287 247L1287 273L1287 299L1287 325L1287 351L1287 377L1287 403L1287 429L1287 455L1287 481L1287 507L1287 533L1287 559L1287 585L1287 611L1287 637L1313 663L1313 689L1313 715L1313 741L1339 767L1339 793L1339 819L1339 845L1365 871L1365 897L1365 923L1365 949L1365 975L1365 1001L1365 1027L1365 1053L1339 1079L1339 1105L1339 1131L1339 1157L1339 1183L1339 1209L1339 1235L1339 1261L1339 1287L1339 1313L1313 1339L1313 1365L1313 1391L1313 1417" stroke="url(&quot;#SvgjsLinearGradient1170&quot;)" stroke-width="4.33"></path>
            <path d="M1306.5 1417 a6.5 6.5 0 1 0 13 0 a6.5 6.5 0 1 0 -13 0zM1332.5 741 a6.5 6.5 0 1 0 13 0 a6.5 6.5 0 1 0 -13 0zM1306.5 845 a6.5 6.5 0 1 0 13 0 a6.5 6.5 0 1 0 -13 0zM1358.5 1521 a6.5 6.5 0 1 0 13 0 a6.5 6.5 0 1 0 -13 0zM1384.5 1287 a6.5 6.5 0 1 0 13 0 a6.5 6.5 0 1 0 -13 0zM1384.5 1105 a6.5 6.5 0 1 0 13 0 a6.5 6.5 0 1 0 -13 0zM1332.5 1027 a6.5 6.5 0 1 0 13 0 a6.5 6.5 0 1 0 -13 0zM1306.5 1313 a6.5 6.5 0 1 0 13 0 a6.5 6.5 0 1 0 -13 0zM1384.5 975 a6.5 6.5 0 1 0 13 0 a6.5 6.5 0 1 0 -13 0zM1280.5 1313 a6.5 6.5 0 1 0 13 0 a6.5 6.5 0 1 0 -13 0zM1332.5 871 a6.5 6.5 0 1 0 13 0 a6.5 6.5 0 1 0 -13 0zM1384.5 1235 a6.5 6.5 0 1 0 13 0 a6.5 6.5 0 1 0 -13 0zM1254.5 169 a6.5 6.5 0 1 0 13 0 a6.5 6.5 0 1 0 -13 0zM1332.5 1339 a6.5 6.5 0 1 0 13 0 a6.5 6.5 0 1 0 -13 0zM1306.5 1209 a6.5 6.5 0 1 0 13 0 a6.5 6.5 0 1 0 -13 0z" fill="url(&quot;#SvgjsLinearGradient1170&quot;)"></path>
            <path d="M663 117L689 143M585 819L559 845M611 637L637 663L637 689L637 715L637 741M585 767L611 793L611 819M611 585L637 611L637 637M611 741L611 767M585 923L559 949L559 975L533 1001L533 1027L533 1053L533 1079L533 1105L533 1131L533 1157L533 1183L533 1209L533 1235L533 1261L533 1287L533 1313L533 1339M663 221L689 247M585 871L559 897L559 923L533 949L533 975M585 507L585 533L585 559L585 585M715 -13L689 13L689 39L689 65L689 91L663 117L663 143L663 169L663 195L663 221L663 247L663 273L663 299L663 325L637 351L637 377L637 403L611 429L611 455L585 481L585 507L611 533L611 559L611 585L611 611L611 637L611 663L611 689L611 715L611 741L585 767L585 793L585 819L585 845L585 871L585 897L585 923L585 949L585 975L585 1001" stroke="url(&quot;#SvgjsLinearGradient1170&quot;)" stroke-width="4.33"></path>
            <path d="M578.5 1001 a6.5 6.5 0 1 0 13 0 a6.5 6.5 0 1 0 -13 0zM682.5 143 a6.5 6.5 0 1 0 13 0 a6.5 6.5 0 1 0 -13 0zM552.5 845 a6.5 6.5 0 1 0 13 0 a6.5 6.5 0 1 0 -13 0zM630.5 741 a6.5 6.5 0 1 0 13 0 a6.5 6.5 0 1 0 -13 0zM604.5 819 a6.5 6.5 0 1 0 13 0 a6.5 6.5 0 1 0 -13 0zM630.5 637 a6.5 6.5 0 1 0 13 0 a6.5 6.5 0 1 0 -13 0zM604.5 767 a6.5 6.5 0 1 0 13 0 a6.5 6.5 0 1 0 -13 0zM526.5 1339 a6.5 6.5 0 1 0 13 0 a6.5 6.5 0 1 0 -13 0zM682.5 247 a6.5 6.5 0 1 0 13 0 a6.5 6.5 0 1 0 -13 0zM526.5 975 a6.5 6.5 0 1 0 13 0 a6.5 6.5 0 1 0 -13 0zM578.5 585 a6.5 6.5 0 1 0 13 0 a6.5 6.5 0 1 0 -13 0z" fill="url(&quot;#SvgjsLinearGradient1170&quot;)"></path>
            <path d="M1365 611L1365 637M1339 299L1313 325L1313 351M1365 507L1339 533L1339 559L1339 585L1339 611L1339 637M1365 455L1339 481L1339 507M1313 273L1313 299M1209 -13L1235 13L1235 39L1235 65L1235 91L1261 117L1287 143L1287 169L1287 195L1313 221L1313 247L1313 273L1339 299L1339 325L1339 351L1339 377L1339 403L1339 429L1365 455L1365 481L1365 507L1365 533L1365 559L1365 585L1365 611L1391 637" stroke="url(&quot;#SvgjsLinearGradient1170&quot;)" stroke-width="4.33"></path>
            <path d="M1384.5 637 a6.5 6.5 0 1 0 13 0 a6.5 6.5 0 1 0 -13 0zM1358.5 637 a6.5 6.5 0 1 0 13 0 a6.5 6.5 0 1 0 -13 0zM1306.5 351 a6.5 6.5 0 1 0 13 0 a6.5 6.5 0 1 0 -13 0zM1332.5 637 a6.5 6.5 0 1 0 13 0 a6.5 6.5 0 1 0 -13 0zM1332.5 507 a6.5 6.5 0 1 0 13 0 a6.5 6.5 0 1 0 -13 0zM1306.5 299 a6.5 6.5 0 1 0 13 0 a6.5 6.5 0 1 0 -13 0z" fill="url(&quot;#SvgjsLinearGradient1170&quot;)"></path>
            <path d="M559 585L559 611L559 637M585 715L559 741M585 663L559 689L559 715M689 -13L663 13L663 39L663 65L663 91L637 117L637 143L637 169L637 195L637 221L637 247L637 273L637 299L637 325L611 351L611 377L611 403L585 429L585 455L559 481L559 507L559 533L559 559L559 585L585 611L585 637L585 663L585 689L585 715L585 741L559 767L559 793" stroke="url(&quot;#SvgjsLinearGradient1170&quot;)" stroke-width="4.33"></path>
            <path d="M552.5 793 a6.5 6.5 0 1 0 13 0 a6.5 6.5 0 1 0 -13 0zM552.5 637 a6.5 6.5 0 1 0 13 0 a6.5 6.5 0 1 0 -13 0zM552.5 741 a6.5 6.5 0 1 0 13 0 a6.5 6.5 0 1 0 -13 0zM552.5 715 a6.5 6.5 0 1 0 13 0 a6.5 6.5 0 1 0 -13 0z" fill="url(&quot;#SvgjsLinearGradient1170&quot;)"></path>
            <path d="M1313 169L1313 195M1417 663L1391 689M1417 767L1391 793L1391 819L1391 845L1391 871M1417 741L1391 767L1365 793L1365 819L1365 845M1235 -13L1261 13L1261 39L1261 65L1261 91L1287 117L1313 143L1313 169L1339 195L1339 221L1339 247L1339 273L1365 299L1365 325L1365 351L1365 377L1365 403L1365 429L1391 455L1391 481L1391 507L1391 533L1391 559L1391 585L1391 611L1417 637L1417 663L1417 689L1417 715L1417 741L1417 767L1417 793" stroke="url(&quot;#SvgjsLinearGradient1170&quot;)" stroke-width="4.33"></path>
            <path d="M1410.5 793 a6.5 6.5 0 1 0 13 0 a6.5 6.5 0 1 0 -13 0zM1306.5 195 a6.5 6.5 0 1 0 13 0 a6.5 6.5 0 1 0 -13 0zM1384.5 689 a6.5 6.5 0 1 0 13 0 a6.5 6.5 0 1 0 -13 0zM1384.5 871 a6.5 6.5 0 1 0 13 0 a6.5 6.5 0 1 0 -13 0zM1358.5 845 a6.5 6.5 0 1 0 13 0 a6.5 6.5 0 1 0 -13 0z" fill="url(&quot;#SvgjsLinearGradient1170&quot;)"></path>
            <path d="M611 221L585 247L585 273M637 65L611 91M507 637L481 663L481 689L481 715L481 741L481 767L481 793L507 819L533 845L533 871L533 897L533 923M611 117L585 143L585 169L585 195L585 221M533 767L533 793L533 819M559 429L533 455L507 481L507 507L507 533M507 663L533 689M507 689L507 715M663 -13L637 13L637 39L637 65L637 91L611 117L611 143L611 169L611 195L611 221L611 247L611 273L611 299L611 325L585 351L585 377L585 403L559 429L559 455L533 481L533 507L533 533L533 559L533 585L507 611L507 637L507 663L507 689L533 715L533 741L533 767L507 793" stroke="url(&quot;#SvgjsLinearGradient1170&quot;)" stroke-width="4.33"></path>
            <path d="M500.5 793 a6.5 6.5 0 1 0 13 0 a6.5 6.5 0 1 0 -13 0zM578.5 273 a6.5 6.5 0 1 0 13 0 a6.5 6.5 0 1 0 -13 0zM604.5 91 a6.5 6.5 0 1 0 13 0 a6.5 6.5 0 1 0 -13 0zM526.5 923 a6.5 6.5 0 1 0 13 0 a6.5 6.5 0 1 0 -13 0zM578.5 221 a6.5 6.5 0 1 0 13 0 a6.5 6.5 0 1 0 -13 0zM526.5 819 a6.5 6.5 0 1 0 13 0 a6.5 6.5 0 1 0 -13 0zM500.5 533 a6.5 6.5 0 1 0 13 0 a6.5 6.5 0 1 0 -13 0zM526.5 689 a6.5 6.5 0 1 0 13 0 a6.5 6.5 0 1 0 -13 0zM500.5 715 a6.5 6.5 0 1 0 13 0 a6.5 6.5 0 1 0 -13 0z" fill="url(&quot;#SvgjsLinearGradient1170&quot;)"></path>
            <path d="M1391 403L1417 429M1443 1287L1469 1313L1469 1339L1469 1365M1443 819L1469 845M1417 1053L1443 1079L1443 1105L1469 1131L1469 1157L1469 1183M1443 1261L1469 1287M1417 1027L1443 1053L1469 1079L1469 1105L1495 1131L1495 1157M1443 975L1443 1001L1443 1027L1469 1053M1443 689L1469 715L1469 741L1469 767L1469 793M1417 1469L1391 1495L1391 1521L1391 1547L1391 1573M1443 949L1417 975M1443 897L1417 923L1417 949M1417 1183L1417 1209L1417 1235L1417 1261L1417 1287L1417 1313L1391 1339L1391 1365L1391 1391L1391 1417L1391 1443L1391 1469M1417 1131L1443 1157L1443 1183M1417 1157L1391 1183M1443 1547L1469 1573L1469 1599L1469 1625M1261 -13L1287 13L1287 39L1287 65L1287 91L1313 117L1339 143L1339 169L1365 195L1365 221L1365 247L1365 273L1391 299L1391 325L1391 351L1391 377L1391 403L1391 429L1417 455L1417 481L1417 507L1417 533L1417 559L1417 585L1417 611L1443 637L1443 663L1443 689L1443 715L1443 741L1443 767L1443 793L1443 819L1443 845L1443 871L1443 897L1443 923L1443 949L1443 975L1417 1001L1417 1027L1417 1053L1417 1079L1417 1105L1417 1131L1417 1157L1417 1183L1443 1209L1443 1235L1443 1261L1443 1287L1443 1313L1443 1339L1443 1365L1443 1391L1443 1417L1417 1443L1417 1469L1417 1495L1443 1521L1443 1547L1443 1573" stroke="url(&quot;#SvgjsLinearGradient1170&quot;)" stroke-width="4.33"></path>
            <path d="M1436.5 1573 a6.5 6.5 0 1 0 13 0 a6.5 6.5 0 1 0 -13 0zM1410.5 429 a6.5 6.5 0 1 0 13 0 a6.5 6.5 0 1 0 -13 0zM1462.5 1365 a6.5 6.5 0 1 0 13 0 a6.5 6.5 0 1 0 -13 0zM1462.5 845 a6.5 6.5 0 1 0 13 0 a6.5 6.5 0 1 0 -13 0zM1462.5 1183 a6.5 6.5 0 1 0 13 0 a6.5 6.5 0 1 0 -13 0zM1462.5 1287 a6.5 6.5 0 1 0 13 0 a6.5 6.5 0 1 0 -13 0zM1488.5 1157 a6.5 6.5 0 1 0 13 0 a6.5 6.5 0 1 0 -13 0zM1462.5 1053 a6.5 6.5 0 1 0 13 0 a6.5 6.5 0 1 0 -13 0zM1462.5 793 a6.5 6.5 0 1 0 13 0 a6.5 6.5 0 1 0 -13 0zM1384.5 1573 a6.5 6.5 0 1 0 13 0 a6.5 6.5 0 1 0 -13 0zM1410.5 975 a6.5 6.5 0 1 0 13 0 a6.5 6.5 0 1 0 -13 0zM1410.5 949 a6.5 6.5 0 1 0 13 0 a6.5 6.5 0 1 0 -13 0zM1384.5 1469 a6.5 6.5 0 1 0 13 0 a6.5 6.5 0 1 0 -13 0zM1436.5 1183 a6.5 6.5 0 1 0 13 0 a6.5 6.5 0 1 0 -13 0zM1384.5 1183 a6.5 6.5 0 1 0 13 0 a6.5 6.5 0 1 0 -13 0zM1462.5 1625 a6.5 6.5 0 1 0 13 0 a6.5 6.5 0 1 0 -13 0z" fill="url(&quot;#SvgjsLinearGradient1170&quot;)"></path>
            <path d="M637 -13L611 13L585 39L585 65L585 91" stroke="url(&quot;#SvgjsLinearGradient1170&quot;)" stroke-width="4.33"></path>
            <path d="M578.5 91 a6.5 6.5 0 1 0 13 0 a6.5 6.5 0 1 0 -13 0z" fill="url(&quot;#SvgjsLinearGradient1170&quot;)"></path>
            <path d="M1495 871L1521 897L1521 923L1521 949L1521 975L1521 1001L1521 1027L1521 1053L1521 1079L1521 1105L1521 1131M1339 39L1313 65L1313 91M1443 585L1469 611M1495 949L1469 975L1469 1001M1443 559L1469 585M1495 923L1469 949M1417 377L1417 403M1495 845L1521 871M1443 533L1469 559M1287 -13L1313 13L1339 39L1339 65L1339 91L1339 117L1365 143L1365 169L1391 195L1391 221L1391 247L1391 273L1417 299L1417 325L1417 351L1417 377L1443 403L1443 429L1443 455L1443 481L1443 507L1443 533L1443 559L1443 585L1443 611L1469 637L1469 663L1495 689L1495 715L1495 741L1495 767L1495 793L1495 819L1495 845L1495 871L1495 897L1495 923L1495 949L1495 975" stroke="url(&quot;#SvgjsLinearGradient1170&quot;)" stroke-width="4.33"></path>
            <path d="M1488.5 975 a6.5 6.5 0 1 0 13 0 a6.5 6.5 0 1 0 -13 0zM1514.5 1131 a6.5 6.5 0 1 0 13 0 a6.5 6.5 0 1 0 -13 0zM1306.5 91 a6.5 6.5 0 1 0 13 0 a6.5 6.5 0 1 0 -13 0zM1462.5 611 a6.5 6.5 0 1 0 13 0 a6.5 6.5 0 1 0 -13 0zM1462.5 1001 a6.5 6.5 0 1 0 13 0 a6.5 6.5 0 1 0 -13 0zM1462.5 585 a6.5 6.5 0 1 0 13 0 a6.5 6.5 0 1 0 -13 0zM1462.5 949 a6.5 6.5 0 1 0 13 0 a6.5 6.5 0 1 0 -13 0zM1410.5 403 a6.5 6.5 0 1 0 13 0 a6.5 6.5 0 1 0 -13 0zM1514.5 871 a6.5 6.5 0 1 0 13 0 a6.5 6.5 0 1 0 -13 0zM1462.5 559 a6.5 6.5 0 1 0 13 0 a6.5 6.5 0 1 0 -13 0z" fill="url(&quot;#SvgjsLinearGradient1170&quot;)"></path>
            <path d="M585 299L559 325M559 273L559 299M611 -13L585 13L559 39L559 65L559 91L559 117L559 143L559 169L559 195L559 221L559 247L559 273L585 299L585 325L559 351L559 377" stroke="url(&quot;#SvgjsLinearGradient1170&quot;)" stroke-width="4.33"></path>
            <path d="M552.5 377 a6.5 6.5 0 1 0 13 0 a6.5 6.5 0 1 0 -13 0zM552.5 325 a6.5 6.5 0 1 0 13 0 a6.5 6.5 0 1 0 -13 0zM552.5 299 a6.5 6.5 0 1 0 13 0 a6.5 6.5 0 1 0 -13 0z" fill="url(&quot;#SvgjsLinearGradient1170&quot;)"></path>
            <path d="M1495 1313L1521 1339L1521 1365L1547 1391M1495 1235L1521 1261L1521 1287L1521 1313M1469 481L1495 507M1547 1105L1573 1131L1573 1157M1547 1131L1547 1157L1547 1183L1547 1209L1521 1235M1521 1157L1521 1183L1521 1209M1547 923L1573 949L1573 975L1573 1001L1573 1027L1573 1053L1573 1079L1573 1105L1599 1131M1547 897L1573 923M1469 507L1469 533M1469 455L1495 481M1495 1209L1469 1235L1469 1261M1547 871L1573 897M1469 429L1495 455M1313 -13L1339 13L1365 39L1365 65L1365 91L1365 117L1391 143L1391 169L1417 195L1417 221L1417 247L1417 273L1443 299L1443 325L1443 351L1443 377L1469 403L1469 429L1469 455L1469 481L1469 507L1495 533L1495 559L1495 585L1495 611L1495 637L1495 663L1521 689L1521 715L1521 741L1521 767L1521 793L1521 819L1547 845L1547 871L1547 897L1547 923L1547 949L1547 975L1547 1001L1547 1027L1547 1053L1547 1079L1547 1105L1547 1131L1521 1157L1495 1183L1495 1209L1495 1235L1495 1261L1495 1287L1495 1313L1495 1339L1495 1365L1521 1391" stroke="url(&quot;#SvgjsLinearGradient1170&quot;)" stroke-width="4.33"></path>
            <path d="M1514.5 1391 a6.5 6.5 0 1 0 13 0 a6.5 6.5 0 1 0 -13 0zM1540.5 1391 a6.5 6.5 0 1 0 13 0 a6.5 6.5 0 1 0 -13 0zM1514.5 1313 a6.5 6.5 0 1 0 13 0 a6.5 6.5 0 1 0 -13 0zM1488.5 507 a6.5 6.5 0 1 0 13 0 a6.5 6.5 0 1 0 -13 0zM1566.5 1157 a6.5 6.5 0 1 0 13 0 a6.5 6.5 0 1 0 -13 0zM1514.5 1235 a6.5 6.5 0 1 0 13 0 a6.5 6.5 0 1 0 -13 0zM1514.5 1209 a6.5 6.5 0 1 0 13 0 a6.5 6.5 0 1 0 -13 0zM1592.5 1131 a6.5 6.5 0 1 0 13 0 a6.5 6.5 0 1 0 -13 0zM1566.5 923 a6.5 6.5 0 1 0 13 0 a6.5 6.5 0 1 0 -13 0zM1462.5 533 a6.5 6.5 0 1 0 13 0 a6.5 6.5 0 1 0 -13 0zM1488.5 481 a6.5 6.5 0 1 0 13 0 a6.5 6.5 0 1 0 -13 0zM1462.5 1261 a6.5 6.5 0 1 0 13 0 a6.5 6.5 0 1 0 -13 0zM1566.5 897 a6.5 6.5 0 1 0 13 0 a6.5 6.5 0 1 0 -13 0zM1488.5 455 a6.5 6.5 0 1 0 13 0 a6.5 6.5 0 1 0 -13 0z" fill="url(&quot;#SvgjsLinearGradient1170&quot;)"></path>
            <path d="M533 221L507 247L507 273L507 299L507 325L507 351M533 377L533 403L533 429L507 455L481 481L481 507L481 533M585 -13L559 13L533 39L533 65L533 91L533 117L533 143L533 169L533 195L533 221L533 247L533 273L533 299L533 325L533 351L533 377L559 403" stroke="url(&quot;#SvgjsLinearGradient1170&quot;)" stroke-width="4.33"></path>
            <path d="M552.5 403 a6.5 6.5 0 1 0 13 0 a6.5 6.5 0 1 0 -13 0zM500.5 351 a6.5 6.5 0 1 0 13 0 a6.5 6.5 0 1 0 -13 0zM474.5 533 a6.5 6.5 0 1 0 13 0 a6.5 6.5 0 1 0 -13 0z" fill="url(&quot;#SvgjsLinearGradient1170&quot;)"></path>
            <path d="M1391 65L1391 91L1391 117L1417 143L1417 169M1443 221L1443 247M1339 -13L1365 13L1391 39L1391 65L1417 91L1443 117L1443 143L1443 169L1443 195L1443 221L1469 247L1469 273L1469 299L1469 325L1469 351L1469 377L1495 403" stroke="url(&quot;#SvgjsLinearGradient1170&quot;)" stroke-width="4.33"></path>
            <path d="M1488.5 403 a6.5 6.5 0 1 0 13 0 a6.5 6.5 0 1 0 -13 0zM1410.5 169 a6.5 6.5 0 1 0 13 0 a6.5 6.5 0 1 0 -13 0zM1436.5 247 a6.5 6.5 0 1 0 13 0 a6.5 6.5 0 1 0 -13 0z" fill="url(&quot;#SvgjsLinearGradient1170&quot;)"></path>
            <path d="M429 481L455 507M429 455L455 481M455 351L481 377L481 403L481 429M507 195L507 221M481 221L481 247L481 273L481 299M455 299L429 325L429 351L429 377M559 -13L533 13L507 39L507 65L507 91L507 117L507 143L507 169L507 195L481 221L455 247L455 273L455 299L455 325L455 351L455 377L455 403L429 429L429 455L429 481L429 507L429 533L455 559L455 585L455 611L455 637L429 663" stroke="url(&quot;#SvgjsLinearGradient1170&quot;)" stroke-width="4.33"></path>
            <path d="M422.5 663 a6.5 6.5 0 1 0 13 0 a6.5 6.5 0 1 0 -13 0zM448.5 507 a6.5 6.5 0 1 0 13 0 a6.5 6.5 0 1 0 -13 0zM448.5 481 a6.5 6.5 0 1 0 13 0 a6.5 6.5 0 1 0 -13 0zM474.5 429 a6.5 6.5 0 1 0 13 0 a6.5 6.5 0 1 0 -13 0zM500.5 221 a6.5 6.5 0 1 0 13 0 a6.5 6.5 0 1 0 -13 0zM474.5 299 a6.5 6.5 0 1 0 13 0 a6.5 6.5 0 1 0 -13 0zM422.5 377 a6.5 6.5 0 1 0 13 0 a6.5 6.5 0 1 0 -13 0z" fill="url(&quot;#SvgjsLinearGradient1170&quot;)"></path>
            <path d="M1573 845L1573 871M1495 351L1521 377L1547 403L1547 429L1547 455L1547 481M1469 195L1495 221L1521 247L1521 273M1599 871L1625 897M1469 169L1495 195M1521 611L1547 637L1547 663L1573 689L1573 715M1495 325L1521 351L1547 377L1573 403M1495 299L1521 325L1547 351L1573 377L1599 403M1521 533L1547 559L1547 585L1573 611M1599 949L1625 975L1625 1001L1625 1027L1625 1053L1625 1079L1625 1105L1625 1131L1625 1157L1651 1183L1651 1209L1651 1235M1365 -13L1391 13L1417 39L1417 65L1443 91L1469 117L1469 143L1469 169L1469 195L1469 221L1495 247L1495 273L1495 299L1495 325L1495 351L1495 377L1521 403L1521 429L1521 455L1521 481L1521 507L1521 533L1521 559L1521 585L1521 611L1521 637L1521 663L1547 689L1547 715L1547 741L1547 767L1547 793L1547 819L1573 845L1599 871L1599 897L1599 923L1599 949L1599 975L1599 1001L1599 1027L1599 1053" stroke="url(&quot;#SvgjsLinearGradient1170&quot;)" stroke-width="4.33"></path>
            <path d="M1592.5 1053 a6.5 6.5 0 1 0 13 0 a6.5 6.5 0 1 0 -13 0zM1566.5 871 a6.5 6.5 0 1 0 13 0 a6.5 6.5 0 1 0 -13 0zM1540.5 481 a6.5 6.5 0 1 0 13 0 a6.5 6.5 0 1 0 -13 0zM1514.5 273 a6.5 6.5 0 1 0 13 0 a6.5 6.5 0 1 0 -13 0zM1618.5 897 a6.5 6.5 0 1 0 13 0 a6.5 6.5 0 1 0 -13 0zM1488.5 195 a6.5 6.5 0 1 0 13 0 a6.5 6.5 0 1 0 -13 0zM1566.5 715 a6.5 6.5 0 1 0 13 0 a6.5 6.5 0 1 0 -13 0zM1566.5 403 a6.5 6.5 0 1 0 13 0 a6.5 6.5 0 1 0 -13 0zM1592.5 403 a6.5 6.5 0 1 0 13 0 a6.5 6.5 0 1 0 -13 0zM1566.5 611 a6.5 6.5 0 1 0 13 0 a6.5 6.5 0 1 0 -13 0zM1644.5 1235 a6.5 6.5 0 1 0 13 0 a6.5 6.5 0 1 0 -13 0z" fill="url(&quot;#SvgjsLinearGradient1170&quot;)"></path>
            <path d="M403 585L429 611M429 273L429 299M403 559L429 585M481 65L455 91L429 117L429 143L455 169M481 117L455 143M403 611L403 637L403 663L403 689L403 715M533 -13L507 13L481 39L481 65L481 91L481 117L481 143L481 169L481 195L455 221L429 247L429 273L403 299L403 325L403 351L403 377L403 403L403 429L403 455L403 481L403 507L403 533L403 559L403 585L403 611L429 637" stroke="url(&quot;#SvgjsLinearGradient1170&quot;)" stroke-width="4.33"></path>
            <path d="M422.5 637 a6.5 6.5 0 1 0 13 0 a6.5 6.5 0 1 0 -13 0zM422.5 611 a6.5 6.5 0 1 0 13 0 a6.5 6.5 0 1 0 -13 0zM422.5 299 a6.5 6.5 0 1 0 13 0 a6.5 6.5 0 1 0 -13 0zM422.5 585 a6.5 6.5 0 1 0 13 0 a6.5 6.5 0 1 0 -13 0zM448.5 169 a6.5 6.5 0 1 0 13 0 a6.5 6.5 0 1 0 -13 0zM448.5 143 a6.5 6.5 0 1 0 13 0 a6.5 6.5 0 1 0 -13 0zM396.5 715 a6.5 6.5 0 1 0 13 0 a6.5 6.5 0 1 0 -13 0z" fill="url(&quot;#SvgjsLinearGradient1170&quot;)"></path>
            <path d="M1391 -13L1417 13L1443 39L1443 65L1469 91L1495 117L1495 143" stroke="url(&quot;#SvgjsLinearGradient1170&quot;)" stroke-width="4.33"></path>
            <path d="M1488.5 143 a6.5 6.5 0 1 0 13 0 a6.5 6.5 0 1 0 -13 0z" fill="url(&quot;#SvgjsLinearGradient1170&quot;)"></path>
            <path d="M455 39L455 65M507 -13L481 13L455 39L429 65L429 91" stroke="url(&quot;#SvgjsLinearGradient1170&quot;)" stroke-width="4.33"></path>
            <path d="M422.5 91 a6.5 6.5 0 1 0 13 0 a6.5 6.5 0 1 0 -13 0zM448.5 65 a6.5 6.5 0 1 0 13 0 a6.5 6.5 0 1 0 -13 0z" fill="url(&quot;#SvgjsLinearGradient1170&quot;)"></path>
            <path d="M1521 169L1547 195L1573 221L1573 247L1599 273M1521 117L1547 143L1547 169M1521 195L1521 221M1417 -13L1443 13L1469 39L1469 65L1495 91L1521 117L1521 143L1521 169L1521 195L1547 221L1547 247" stroke="url(&quot;#SvgjsLinearGradient1170&quot;)" stroke-width="4.33"></path>
            <path d="M1540.5 247 a6.5 6.5 0 1 0 13 0 a6.5 6.5 0 1 0 -13 0zM1592.5 273 a6.5 6.5 0 1 0 13 0 a6.5 6.5 0 1 0 -13 0zM1540.5 169 a6.5 6.5 0 1 0 13 0 a6.5 6.5 0 1 0 -13 0zM1514.5 221 a6.5 6.5 0 1 0 13 0 a6.5 6.5 0 1 0 -13 0z" fill="url(&quot;#SvgjsLinearGradient1170&quot;)"></path>
            <path d="M403 195L377 221L377 247L377 273L351 299L351 325L351 351M351 1001L351 1027L351 1053L377 1079L377 1105L403 1131L403 1157L403 1183L429 1209L429 1235L455 1261L455 1287L455 1313L455 1339L455 1365L455 1391L455 1417L455 1443M299 1495L325 1521L325 1547L325 1573L325 1599M377 637L351 663L351 689L325 715L325 741L351 767L351 793L351 819L351 845L351 871L351 897L325 923M299 1443L273 1469L273 1495L273 1521L273 1547M325 1261L299 1287L299 1313L299 1339L273 1365L273 1391L273 1417L273 1443L247 1469L247 1495L247 1521L221 1547L221 1573L221 1599L221 1625M403 91L377 117L377 143L377 169L377 195L351 221L351 247L351 273L325 299L325 325L325 351L325 377L325 403L325 429L325 455L325 481L325 507L325 533L325 559L325 585L325 611L325 637M299 1391L325 1417L325 1443L325 1469L325 1495L351 1521L351 1547L351 1573L351 1599L351 1625M325 1157L299 1183M377 533L351 559L351 585L351 611L351 637M377 819L403 845L403 871L403 897M377 481L351 507L351 533M325 1053L299 1079L299 1105L299 1131L299 1157L273 1183L273 1209L273 1235L273 1261L273 1287L273 1313L273 1339L247 1365L247 1391L247 1417L247 1443L221 1469M377 429L351 455L351 481M377 377L351 403L351 429M481 -13L455 13L429 39L403 65L403 91L403 117L403 143L403 169L403 195L403 221L403 247L403 273L377 299L377 325L377 351L377 377L377 403L377 429L377 455L377 481L377 507L377 533L377 559L377 585L377 611L377 637L377 663L377 689L377 715L377 741L377 767L377 793L377 819L377 845L377 871L377 897L351 923L351 949L351 975L351 1001L325 1027L325 1053L325 1079L325 1105L325 1131L325 1157L325 1183L325 1209L325 1235L325 1261L325 1287L325 1313L325 1339L299 1365L299 1391L299 1417L299 1443L299 1469L299 1495L299 1521L299 1547" stroke="url(&quot;#SvgjsLinearGradient1170&quot;)" stroke-width="4.33"></path>
            <path d="M292.5 1547 a6.5 6.5 0 1 0 13 0 a6.5 6.5 0 1 0 -13 0zM344.5 351 a6.5 6.5 0 1 0 13 0 a6.5 6.5 0 1 0 -13 0zM448.5 1443 a6.5 6.5 0 1 0 13 0 a6.5 6.5 0 1 0 -13 0zM318.5 1599 a6.5 6.5 0 1 0 13 0 a6.5 6.5 0 1 0 -13 0zM318.5 923 a6.5 6.5 0 1 0 13 0 a6.5 6.5 0 1 0 -13 0zM266.5 1547 a6.5 6.5 0 1 0 13 0 a6.5 6.5 0 1 0 -13 0zM214.5 1625 a6.5 6.5 0 1 0 13 0 a6.5 6.5 0 1 0 -13 0zM318.5 637 a6.5 6.5 0 1 0 13 0 a6.5 6.5 0 1 0 -13 0zM344.5 1625 a6.5 6.5 0 1 0 13 0 a6.5 6.5 0 1 0 -13 0zM292.5 1183 a6.5 6.5 0 1 0 13 0 a6.5 6.5 0 1 0 -13 0zM344.5 637 a6.5 6.5 0 1 0 13 0 a6.5 6.5 0 1 0 -13 0zM396.5 897 a6.5 6.5 0 1 0 13 0 a6.5 6.5 0 1 0 -13 0zM344.5 533 a6.5 6.5 0 1 0 13 0 a6.5 6.5 0 1 0 -13 0zM214.5 1469 a6.5 6.5 0 1 0 13 0 a6.5 6.5 0 1 0 -13 0zM344.5 481 a6.5 6.5 0 1 0 13 0 a6.5 6.5 0 1 0 -13 0zM344.5 429 a6.5 6.5 0 1 0 13 0 a6.5 6.5 0 1 0 -13 0z" fill="url(&quot;#SvgjsLinearGradient1170&quot;)"></path>
        </g>
    </g>
    <defs>
        <mask id="SvgjsMask1169">
            <rect width="1920" height="1680" fill="#ffffff"></rect>
        </mask>
        <linearGradient x1="0" y1="840" x2="1920" y2="840" gradientUnits="userSpaceOnUse" id="SvgjsLinearGradient1170">
            <stop stop-color="#3a7cc3" offset="0"></stop>
            <stop stop-color="#dd1133" offset="1"></stop>
        </linearGradient>
        <mask id="SvgjsMask1171">
            <rect width="1920" height="1680" fill="white"></rect>
            <path d="M945.75 585 a3.25 3.25 0 1 0 6.5 0 a3.25 3.25 0 1 0 -6.5 0zM945.75 455 a3.25 3.25 0 1 0 6.5 0 a3.25 3.25 0 1 0 -6.5 0zM945.75 403 a3.25 3.25 0 1 0 6.5 0 a3.25 3.25 0 1 0 -6.5 0zM945.75 325 a3.25 3.25 0 1 0 6.5 0 a3.25 3.25 0 1 0 -6.5 0zM971.75 559 a3.25 3.25 0 1 0 6.5 0 a3.25 3.25 0 1 0 -6.5 0zM893.75 299 a3.25 3.25 0 1 0 6.5 0 a3.25 3.25 0 1 0 -6.5 0zM971.75 195 a3.25 3.25 0 1 0 6.5 0 a3.25 3.25 0 1 0 -6.5 0z" fill="black"></path>
            <path d="M997.75 403 a3.25 3.25 0 1 0 6.5 0 a3.25 3.25 0 1 0 -6.5 0zM1023.75 299 a3.25 3.25 0 1 0 6.5 0 a3.25 3.25 0 1 0 -6.5 0zM1023.75 169 a3.25 3.25 0 1 0 6.5 0 a3.25 3.25 0 1 0 -6.5 0zM1049.75 351 a3.25 3.25 0 1 0 6.5 0 a3.25 3.25 0 1 0 -6.5 0zM971.75 429 a3.25 3.25 0 1 0 6.5 0 a3.25 3.25 0 1 0 -6.5 0z" fill="black"></path>
            <path d="M919.75 195 a3.25 3.25 0 1 0 6.5 0 a3.25 3.25 0 1 0 -6.5 0zM919.75 169 a3.25 3.25 0 1 0 6.5 0 a3.25 3.25 0 1 0 -6.5 0zM893.75 195 a3.25 3.25 0 1 0 6.5 0 a3.25 3.25 0 1 0 -6.5 0z" fill="black"></path>
            <path d="M1101.75 1131 a3.25 3.25 0 1 0 6.5 0 a3.25 3.25 0 1 0 -6.5 0zM1049.75 689 a3.25 3.25 0 1 0 6.5 0 a3.25 3.25 0 1 0 -6.5 0zM1023.75 143 a3.25 3.25 0 1 0 6.5 0 a3.25 3.25 0 1 0 -6.5 0zM1049.75 1547 a3.25 3.25 0 1 0 6.5 0 a3.25 3.25 0 1 0 -6.5 0zM1127.75 1131 a3.25 3.25 0 1 0 6.5 0 a3.25 3.25 0 1 0 -6.5 0zM1127.75 533 a3.25 3.25 0 1 0 6.5 0 a3.25 3.25 0 1 0 -6.5 0zM1075.75 299 a3.25 3.25 0 1 0 6.5 0 a3.25 3.25 0 1 0 -6.5 0zM1023.75 117 a3.25 3.25 0 1 0 6.5 0 a3.25 3.25 0 1 0 -6.5 0zM1023.75 1391 a3.25 3.25 0 1 0 6.5 0 a3.25 3.25 0 1 0 -6.5 0zM1075.75 715 a3.25 3.25 0 1 0 6.5 0 a3.25 3.25 0 1 0 -6.5 0zM1075.75 273 a3.25 3.25 0 1 0 6.5 0 a3.25 3.25 0 1 0 -6.5 0zM1049.75 247 a3.25 3.25 0 1 0 6.5 0 a3.25 3.25 0 1 0 -6.5 0z" fill="black"></path>
            <path d="M893.75 793 a3.25 3.25 0 1 0 6.5 0 a3.25 3.25 0 1 0 -6.5 0zM919.75 819 a3.25 3.25 0 1 0 6.5 0 a3.25 3.25 0 1 0 -6.5 0zM919.75 663 a3.25 3.25 0 1 0 6.5 0 a3.25 3.25 0 1 0 -6.5 0zM867.75 351 a3.25 3.25 0 1 0 6.5 0 a3.25 3.25 0 1 0 -6.5 0zM841.75 793 a3.25 3.25 0 1 0 6.5 0 a3.25 3.25 0 1 0 -6.5 0zM841.75 221 a3.25 3.25 0 1 0 6.5 0 a3.25 3.25 0 1 0 -6.5 0zM919.75 949 a3.25 3.25 0 1 0 6.5 0 a3.25 3.25 0 1 0 -6.5 0zM841.75 351 a3.25 3.25 0 1 0 6.5 0 a3.25 3.25 0 1 0 -6.5 0zM893.75 247 a3.25 3.25 0 1 0 6.5 0 a3.25 3.25 0 1 0 -6.5 0z" fill="black"></path>
            <path d="M1153.75 845 a3.25 3.25 0 1 0 6.5 0 a3.25 3.25 0 1 0 -6.5 0zM1127.75 429 a3.25 3.25 0 1 0 6.5 0 a3.25 3.25 0 1 0 -6.5 0zM1179.75 611 a3.25 3.25 0 1 0 6.5 0 a3.25 3.25 0 1 0 -6.5 0zM1153.75 611 a3.25 3.25 0 1 0 6.5 0 a3.25 3.25 0 1 0 -6.5 0zM1179.75 741 a3.25 3.25 0 1 0 6.5 0 a3.25 3.25 0 1 0 -6.5 0zM1179.75 507 a3.25 3.25 0 1 0 6.5 0 a3.25 3.25 0 1 0 -6.5 0zM1179.75 429 a3.25 3.25 0 1 0 6.5 0 a3.25 3.25 0 1 0 -6.5 0zM1205.75 741 a3.25 3.25 0 1 0 6.5 0 a3.25 3.25 0 1 0 -6.5 0zM1205.75 871 a3.25 3.25 0 1 0 6.5 0 a3.25 3.25 0 1 0 -6.5 0z" fill="black"></path>
            <path d="M737.75 1599 a3.25 3.25 0 1 0 6.5 0 a3.25 3.25 0 1 0 -6.5 0zM815.75 1079 a3.25 3.25 0 1 0 6.5 0 a3.25 3.25 0 1 0 -6.5 0zM815.75 741 a3.25 3.25 0 1 0 6.5 0 a3.25 3.25 0 1 0 -6.5 0zM763.75 1365 a3.25 3.25 0 1 0 6.5 0 a3.25 3.25 0 1 0 -6.5 0zM789.75 949 a3.25 3.25 0 1 0 6.5 0 a3.25 3.25 0 1 0 -6.5 0zM711.75 1625 a3.25 3.25 0 1 0 6.5 0 a3.25 3.25 0 1 0 -6.5 0zM737.75 767 a3.25 3.25 0 1 0 6.5 0 a3.25 3.25 0 1 0 -6.5 0zM841.75 1131 a3.25 3.25 0 1 0 6.5 0 a3.25 3.25 0 1 0 -6.5 0zM763.75 455 a3.25 3.25 0 1 0 6.5 0 a3.25 3.25 0 1 0 -6.5 0zM685.75 1287 a3.25 3.25 0 1 0 6.5 0 a3.25 3.25 0 1 0 -6.5 0zM737.75 481 a3.25 3.25 0 1 0 6.5 0 a3.25 3.25 0 1 0 -6.5 0zM711.75 715 a3.25 3.25 0 1 0 6.5 0 a3.25 3.25 0 1 0 -6.5 0zM711.75 1183 a3.25 3.25 0 1 0 6.5 0 a3.25 3.25 0 1 0 -6.5 0zM737.75 689 a3.25 3.25 0 1 0 6.5 0 a3.25 3.25 0 1 0 -6.5 0zM763.75 1287 a3.25 3.25 0 1 0 6.5 0 a3.25 3.25 0 1 0 -6.5 0zM789.75 1183 a3.25 3.25 0 1 0 6.5 0 a3.25 3.25 0 1 0 -6.5 0z" fill="black"></path>
            <path d="M1153.75 273 a3.25 3.25 0 1 0 6.5 0 a3.25 3.25 0 1 0 -6.5 0z" fill="black"></path>
            <path d="M841.75 117 a3.25 3.25 0 1 0 6.5 0 a3.25 3.25 0 1 0 -6.5 0z" fill="black"></path>
            <path d="M1257.75 897 a3.25 3.25 0 1 0 6.5 0 a3.25 3.25 0 1 0 -6.5 0zM1231.75 403 a3.25 3.25 0 1 0 6.5 0 a3.25 3.25 0 1 0 -6.5 0zM1179.75 403 a3.25 3.25 0 1 0 6.5 0 a3.25 3.25 0 1 0 -6.5 0zM1205.75 611 a3.25 3.25 0 1 0 6.5 0 a3.25 3.25 0 1 0 -6.5 0zM1231.75 507 a3.25 3.25 0 1 0 6.5 0 a3.25 3.25 0 1 0 -6.5 0zM1231.75 715 a3.25 3.25 0 1 0 6.5 0 a3.25 3.25 0 1 0 -6.5 0zM1231.75 455 a3.25 3.25 0 1 0 6.5 0 a3.25 3.25 0 1 0 -6.5 0zM1283.75 1053 a3.25 3.25 0 1 0 6.5 0 a3.25 3.25 0 1 0 -6.5 0zM1153.75 247 a3.25 3.25 0 1 0 6.5 0 a3.25 3.25 0 1 0 -6.5 0zM1231.75 897 a3.25 3.25 0 1 0 6.5 0 a3.25 3.25 0 1 0 -6.5 0z" fill="black"></path>
            <path d="M789.75 351 a3.25 3.25 0 1 0 6.5 0 a3.25 3.25 0 1 0 -6.5 0zM737.75 377 a3.25 3.25 0 1 0 6.5 0 a3.25 3.25 0 1 0 -6.5 0zM737.75 325 a3.25 3.25 0 1 0 6.5 0 a3.25 3.25 0 1 0 -6.5 0z" fill="black"></path>
            <path d="M1205.75 299 a3.25 3.25 0 1 0 6.5 0 a3.25 3.25 0 1 0 -6.5 0zM1231.75 325 a3.25 3.25 0 1 0 6.5 0 a3.25 3.25 0 1 0 -6.5 0zM1231.75 273 a3.25 3.25 0 1 0 6.5 0 a3.25 3.25 0 1 0 -6.5 0z" fill="black"></path>
            <path d="M763.75 221 a3.25 3.25 0 1 0 6.5 0 a3.25 3.25 0 1 0 -6.5 0zM763.75 143 a3.25 3.25 0 1 0 6.5 0 a3.25 3.25 0 1 0 -6.5 0zM763.75 65 a3.25 3.25 0 1 0 6.5 0 a3.25 3.25 0 1 0 -6.5 0z" fill="black"></path>
            <path d="M1153.75 13 a3.25 3.25 0 1 0 6.5 0 a3.25 3.25 0 1 0 -6.5 0z" fill="black"></path>
            <path d="M711.75 325 a3.25 3.25 0 1 0 6.5 0 a3.25 3.25 0 1 0 -6.5 0zM737.75 299 a3.25 3.25 0 1 0 6.5 0 a3.25 3.25 0 1 0 -6.5 0zM763.75 39 a3.25 3.25 0 1 0 6.5 0 a3.25 3.25 0 1 0 -6.5 0zM763.75 273 a3.25 3.25 0 1 0 6.5 0 a3.25 3.25 0 1 0 -6.5 0z" fill="black"></path>
            <path d="M1283.75 741 a3.25 3.25 0 1 0 6.5 0 a3.25 3.25 0 1 0 -6.5 0zM1231.75 377 a3.25 3.25 0 1 0 6.5 0 a3.25 3.25 0 1 0 -6.5 0zM1231.75 221 a3.25 3.25 0 1 0 6.5 0 a3.25 3.25 0 1 0 -6.5 0z" fill="black"></path>
            <path d="M633.75 1417 a3.25 3.25 0 1 0 6.5 0 a3.25 3.25 0 1 0 -6.5 0zM685.75 273 a3.25 3.25 0 1 0 6.5 0 a3.25 3.25 0 1 0 -6.5 0zM685.75 975 a3.25 3.25 0 1 0 6.5 0 a3.25 3.25 0 1 0 -6.5 0zM659.75 1391 a3.25 3.25 0 1 0 6.5 0 a3.25 3.25 0 1 0 -6.5 0zM711.75 819 a3.25 3.25 0 1 0 6.5 0 a3.25 3.25 0 1 0 -6.5 0zM607.75 1313 a3.25 3.25 0 1 0 6.5 0 a3.25 3.25 0 1 0 -6.5 0zM607.75 1209 a3.25 3.25 0 1 0 6.5 0 a3.25 3.25 0 1 0 -6.5 0zM711.75 611 a3.25 3.25 0 1 0 6.5 0 a3.25 3.25 0 1 0 -6.5 0zM607.75 845 a3.25 3.25 0 1 0 6.5 0 a3.25 3.25 0 1 0 -6.5 0zM633.75 1105 a3.25 3.25 0 1 0 6.5 0 a3.25 3.25 0 1 0 -6.5 0zM633.75 481 a3.25 3.25 0 1 0 6.5 0 a3.25 3.25 0 1 0 -6.5 0zM685.75 195 a3.25 3.25 0 1 0 6.5 0 a3.25 3.25 0 1 0 -6.5 0zM659.75 1027 a3.25 3.25 0 1 0 6.5 0 a3.25 3.25 0 1 0 -6.5 0zM685.75 169 a3.25 3.25 0 1 0 6.5 0 a3.25 3.25 0 1 0 -6.5 0zM633.75 455 a3.25 3.25 0 1 0 6.5 0 a3.25 3.25 0 1 0 -6.5 0z" fill="black"></path>
            <path d="M1309.75 1417 a3.25 3.25 0 1 0 6.5 0 a3.25 3.25 0 1 0 -6.5 0zM1335.75 741 a3.25 3.25 0 1 0 6.5 0 a3.25 3.25 0 1 0 -6.5 0zM1309.75 845 a3.25 3.25 0 1 0 6.5 0 a3.25 3.25 0 1 0 -6.5 0zM1361.75 1521 a3.25 3.25 0 1 0 6.5 0 a3.25 3.25 0 1 0 -6.5 0zM1387.75 1287 a3.25 3.25 0 1 0 6.5 0 a3.25 3.25 0 1 0 -6.5 0zM1387.75 1105 a3.25 3.25 0 1 0 6.5 0 a3.25 3.25 0 1 0 -6.5 0zM1335.75 1027 a3.25 3.25 0 1 0 6.5 0 a3.25 3.25 0 1 0 -6.5 0zM1309.75 1313 a3.25 3.25 0 1 0 6.5 0 a3.25 3.25 0 1 0 -6.5 0zM1387.75 975 a3.25 3.25 0 1 0 6.5 0 a3.25 3.25 0 1 0 -6.5 0zM1283.75 1313 a3.25 3.25 0 1 0 6.5 0 a3.25 3.25 0 1 0 -6.5 0zM1335.75 871 a3.25 3.25 0 1 0 6.5 0 a3.25 3.25 0 1 0 -6.5 0zM1387.75 1235 a3.25 3.25 0 1 0 6.5 0 a3.25 3.25 0 1 0 -6.5 0zM1257.75 169 a3.25 3.25 0 1 0 6.5 0 a3.25 3.25 0 1 0 -6.5 0zM1335.75 1339 a3.25 3.25 0 1 0 6.5 0 a3.25 3.25 0 1 0 -6.5 0zM1309.75 1209 a3.25 3.25 0 1 0 6.5 0 a3.25 3.25 0 1 0 -6.5 0z" fill="black"></path>
            <path d="M581.75 1001 a3.25 3.25 0 1 0 6.5 0 a3.25 3.25 0 1 0 -6.5 0zM685.75 143 a3.25 3.25 0 1 0 6.5 0 a3.25 3.25 0 1 0 -6.5 0zM555.75 845 a3.25 3.25 0 1 0 6.5 0 a3.25 3.25 0 1 0 -6.5 0zM633.75 741 a3.25 3.25 0 1 0 6.5 0 a3.25 3.25 0 1 0 -6.5 0zM607.75 819 a3.25 3.25 0 1 0 6.5 0 a3.25 3.25 0 1 0 -6.5 0zM633.75 637 a3.25 3.25 0 1 0 6.5 0 a3.25 3.25 0 1 0 -6.5 0zM607.75 767 a3.25 3.25 0 1 0 6.5 0 a3.25 3.25 0 1 0 -6.5 0zM529.75 1339 a3.25 3.25 0 1 0 6.5 0 a3.25 3.25 0 1 0 -6.5 0zM685.75 247 a3.25 3.25 0 1 0 6.5 0 a3.25 3.25 0 1 0 -6.5 0zM529.75 975 a3.25 3.25 0 1 0 6.5 0 a3.25 3.25 0 1 0 -6.5 0zM581.75 585 a3.25 3.25 0 1 0 6.5 0 a3.25 3.25 0 1 0 -6.5 0z" fill="black"></path>
            <path d="M1387.75 637 a3.25 3.25 0 1 0 6.5 0 a3.25 3.25 0 1 0 -6.5 0zM1361.75 637 a3.25 3.25 0 1 0 6.5 0 a3.25 3.25 0 1 0 -6.5 0zM1309.75 351 a3.25 3.25 0 1 0 6.5 0 a3.25 3.25 0 1 0 -6.5 0zM1335.75 637 a3.25 3.25 0 1 0 6.5 0 a3.25 3.25 0 1 0 -6.5 0zM1335.75 507 a3.25 3.25 0 1 0 6.5 0 a3.25 3.25 0 1 0 -6.5 0zM1309.75 299 a3.25 3.25 0 1 0 6.5 0 a3.25 3.25 0 1 0 -6.5 0z" fill="black"></path>
            <path d="M555.75 793 a3.25 3.25 0 1 0 6.5 0 a3.25 3.25 0 1 0 -6.5 0zM555.75 637 a3.25 3.25 0 1 0 6.5 0 a3.25 3.25 0 1 0 -6.5 0zM555.75 741 a3.25 3.25 0 1 0 6.5 0 a3.25 3.25 0 1 0 -6.5 0zM555.75 715 a3.25 3.25 0 1 0 6.5 0 a3.25 3.25 0 1 0 -6.5 0z" fill="black"></path>
            <path d="M1413.75 793 a3.25 3.25 0 1 0 6.5 0 a3.25 3.25 0 1 0 -6.5 0zM1309.75 195 a3.25 3.25 0 1 0 6.5 0 a3.25 3.25 0 1 0 -6.5 0zM1387.75 689 a3.25 3.25 0 1 0 6.5 0 a3.25 3.25 0 1 0 -6.5 0zM1387.75 871 a3.25 3.25 0 1 0 6.5 0 a3.25 3.25 0 1 0 -6.5 0zM1361.75 845 a3.25 3.25 0 1 0 6.5 0 a3.25 3.25 0 1 0 -6.5 0z" fill="black"></path>
            <path d="M503.75 793 a3.25 3.25 0 1 0 6.5 0 a3.25 3.25 0 1 0 -6.5 0zM581.75 273 a3.25 3.25 0 1 0 6.5 0 a3.25 3.25 0 1 0 -6.5 0zM607.75 91 a3.25 3.25 0 1 0 6.5 0 a3.25 3.25 0 1 0 -6.5 0zM529.75 923 a3.25 3.25 0 1 0 6.5 0 a3.25 3.25 0 1 0 -6.5 0zM581.75 221 a3.25 3.25 0 1 0 6.5 0 a3.25 3.25 0 1 0 -6.5 0zM529.75 819 a3.25 3.25 0 1 0 6.5 0 a3.25 3.25 0 1 0 -6.5 0zM503.75 533 a3.25 3.25 0 1 0 6.5 0 a3.25 3.25 0 1 0 -6.5 0zM529.75 689 a3.25 3.25 0 1 0 6.5 0 a3.25 3.25 0 1 0 -6.5 0zM503.75 715 a3.25 3.25 0 1 0 6.5 0 a3.25 3.25 0 1 0 -6.5 0z" fill="black"></path>
            <path d="M1439.75 1573 a3.25 3.25 0 1 0 6.5 0 a3.25 3.25 0 1 0 -6.5 0zM1413.75 429 a3.25 3.25 0 1 0 6.5 0 a3.25 3.25 0 1 0 -6.5 0zM1465.75 1365 a3.25 3.25 0 1 0 6.5 0 a3.25 3.25 0 1 0 -6.5 0zM1465.75 845 a3.25 3.25 0 1 0 6.5 0 a3.25 3.25 0 1 0 -6.5 0zM1465.75 1183 a3.25 3.25 0 1 0 6.5 0 a3.25 3.25 0 1 0 -6.5 0zM1465.75 1287 a3.25 3.25 0 1 0 6.5 0 a3.25 3.25 0 1 0 -6.5 0zM1491.75 1157 a3.25 3.25 0 1 0 6.5 0 a3.25 3.25 0 1 0 -6.5 0zM1465.75 1053 a3.25 3.25 0 1 0 6.5 0 a3.25 3.25 0 1 0 -6.5 0zM1465.75 793 a3.25 3.25 0 1 0 6.5 0 a3.25 3.25 0 1 0 -6.5 0zM1387.75 1573 a3.25 3.25 0 1 0 6.5 0 a3.25 3.25 0 1 0 -6.5 0zM1413.75 975 a3.25 3.25 0 1 0 6.5 0 a3.25 3.25 0 1 0 -6.5 0zM1413.75 949 a3.25 3.25 0 1 0 6.5 0 a3.25 3.25 0 1 0 -6.5 0zM1387.75 1469 a3.25 3.25 0 1 0 6.5 0 a3.25 3.25 0 1 0 -6.5 0zM1439.75 1183 a3.25 3.25 0 1 0 6.5 0 a3.25 3.25 0 1 0 -6.5 0zM1387.75 1183 a3.25 3.25 0 1 0 6.5 0 a3.25 3.25 0 1 0 -6.5 0zM1465.75 1625 a3.25 3.25 0 1 0 6.5 0 a3.25 3.25 0 1 0 -6.5 0z" fill="black"></path>
            <path d="M581.75 91 a3.25 3.25 0 1 0 6.5 0 a3.25 3.25 0 1 0 -6.5 0z" fill="black"></path>
            <path d="M1491.75 975 a3.25 3.25 0 1 0 6.5 0 a3.25 3.25 0 1 0 -6.5 0zM1517.75 1131 a3.25 3.25 0 1 0 6.5 0 a3.25 3.25 0 1 0 -6.5 0zM1309.75 91 a3.25 3.25 0 1 0 6.5 0 a3.25 3.25 0 1 0 -6.5 0zM1465.75 611 a3.25 3.25 0 1 0 6.5 0 a3.25 3.25 0 1 0 -6.5 0zM1465.75 1001 a3.25 3.25 0 1 0 6.5 0 a3.25 3.25 0 1 0 -6.5 0zM1465.75 585 a3.25 3.25 0 1 0 6.5 0 a3.25 3.25 0 1 0 -6.5 0zM1465.75 949 a3.25 3.25 0 1 0 6.5 0 a3.25 3.25 0 1 0 -6.5 0zM1413.75 403 a3.25 3.25 0 1 0 6.5 0 a3.25 3.25 0 1 0 -6.5 0zM1517.75 871 a3.25 3.25 0 1 0 6.5 0 a3.25 3.25 0 1 0 -6.5 0zM1465.75 559 a3.25 3.25 0 1 0 6.5 0 a3.25 3.25 0 1 0 -6.5 0z" fill="black"></path>
            <path d="M555.75 377 a3.25 3.25 0 1 0 6.5 0 a3.25 3.25 0 1 0 -6.5 0zM555.75 325 a3.25 3.25 0 1 0 6.5 0 a3.25 3.25 0 1 0 -6.5 0zM555.75 299 a3.25 3.25 0 1 0 6.5 0 a3.25 3.25 0 1 0 -6.5 0z" fill="black"></path>
            <path d="M1517.75 1391 a3.25 3.25 0 1 0 6.5 0 a3.25 3.25 0 1 0 -6.5 0zM1543.75 1391 a3.25 3.25 0 1 0 6.5 0 a3.25 3.25 0 1 0 -6.5 0zM1517.75 1313 a3.25 3.25 0 1 0 6.5 0 a3.25 3.25 0 1 0 -6.5 0zM1491.75 507 a3.25 3.25 0 1 0 6.5 0 a3.25 3.25 0 1 0 -6.5 0zM1569.75 1157 a3.25 3.25 0 1 0 6.5 0 a3.25 3.25 0 1 0 -6.5 0zM1517.75 1235 a3.25 3.25 0 1 0 6.5 0 a3.25 3.25 0 1 0 -6.5 0zM1517.75 1209 a3.25 3.25 0 1 0 6.5 0 a3.25 3.25 0 1 0 -6.5 0zM1595.75 1131 a3.25 3.25 0 1 0 6.5 0 a3.25 3.25 0 1 0 -6.5 0zM1569.75 923 a3.25 3.25 0 1 0 6.5 0 a3.25 3.25 0 1 0 -6.5 0zM1465.75 533 a3.25 3.25 0 1 0 6.5 0 a3.25 3.25 0 1 0 -6.5 0zM1491.75 481 a3.25 3.25 0 1 0 6.5 0 a3.25 3.25 0 1 0 -6.5 0zM1465.75 1261 a3.25 3.25 0 1 0 6.5 0 a3.25 3.25 0 1 0 -6.5 0zM1569.75 897 a3.25 3.25 0 1 0 6.5 0 a3.25 3.25 0 1 0 -6.5 0zM1491.75 455 a3.25 3.25 0 1 0 6.5 0 a3.25 3.25 0 1 0 -6.5 0z" fill="black"></path>
            <path d="M555.75 403 a3.25 3.25 0 1 0 6.5 0 a3.25 3.25 0 1 0 -6.5 0zM503.75 351 a3.25 3.25 0 1 0 6.5 0 a3.25 3.25 0 1 0 -6.5 0zM477.75 533 a3.25 3.25 0 1 0 6.5 0 a3.25 3.25 0 1 0 -6.5 0z" fill="black"></path>
            <path d="M1491.75 403 a3.25 3.25 0 1 0 6.5 0 a3.25 3.25 0 1 0 -6.5 0zM1413.75 169 a3.25 3.25 0 1 0 6.5 0 a3.25 3.25 0 1 0 -6.5 0zM1439.75 247 a3.25 3.25 0 1 0 6.5 0 a3.25 3.25 0 1 0 -6.5 0z" fill="black"></path>
            <path d="M425.75 663 a3.25 3.25 0 1 0 6.5 0 a3.25 3.25 0 1 0 -6.5 0zM451.75 507 a3.25 3.25 0 1 0 6.5 0 a3.25 3.25 0 1 0 -6.5 0zM451.75 481 a3.25 3.25 0 1 0 6.5 0 a3.25 3.25 0 1 0 -6.5 0zM477.75 429 a3.25 3.25 0 1 0 6.5 0 a3.25 3.25 0 1 0 -6.5 0zM503.75 221 a3.25 3.25 0 1 0 6.5 0 a3.25 3.25 0 1 0 -6.5 0zM477.75 299 a3.25 3.25 0 1 0 6.5 0 a3.25 3.25 0 1 0 -6.5 0zM425.75 377 a3.25 3.25 0 1 0 6.5 0 a3.25 3.25 0 1 0 -6.5 0z" fill="black"></path>
            <path d="M1595.75 1053 a3.25 3.25 0 1 0 6.5 0 a3.25 3.25 0 1 0 -6.5 0zM1569.75 871 a3.25 3.25 0 1 0 6.5 0 a3.25 3.25 0 1 0 -6.5 0zM1543.75 481 a3.25 3.25 0 1 0 6.5 0 a3.25 3.25 0 1 0 -6.5 0zM1517.75 273 a3.25 3.25 0 1 0 6.5 0 a3.25 3.25 0 1 0 -6.5 0zM1621.75 897 a3.25 3.25 0 1 0 6.5 0 a3.25 3.25 0 1 0 -6.5 0zM1491.75 195 a3.25 3.25 0 1 0 6.5 0 a3.25 3.25 0 1 0 -6.5 0zM1569.75 715 a3.25 3.25 0 1 0 6.5 0 a3.25 3.25 0 1 0 -6.5 0zM1569.75 403 a3.25 3.25 0 1 0 6.5 0 a3.25 3.25 0 1 0 -6.5 0zM1595.75 403 a3.25 3.25 0 1 0 6.5 0 a3.25 3.25 0 1 0 -6.5 0zM1569.75 611 a3.25 3.25 0 1 0 6.5 0 a3.25 3.25 0 1 0 -6.5 0zM1647.75 1235 a3.25 3.25 0 1 0 6.5 0 a3.25 3.25 0 1 0 -6.5 0z" fill="black"></path>
            <path d="M425.75 637 a3.25 3.25 0 1 0 6.5 0 a3.25 3.25 0 1 0 -6.5 0zM425.75 611 a3.25 3.25 0 1 0 6.5 0 a3.25 3.25 0 1 0 -6.5 0zM425.75 299 a3.25 3.25 0 1 0 6.5 0 a3.25 3.25 0 1 0 -6.5 0zM425.75 585 a3.25 3.25 0 1 0 6.5 0 a3.25 3.25 0 1 0 -6.5 0zM451.75 169 a3.25 3.25 0 1 0 6.5 0 a3.25 3.25 0 1 0 -6.5 0zM451.75 143 a3.25 3.25 0 1 0 6.5 0 a3.25 3.25 0 1 0 -6.5 0zM399.75 715 a3.25 3.25 0 1 0 6.5 0 a3.25 3.25 0 1 0 -6.5 0z" fill="black"></path>
            <path d="M1491.75 143 a3.25 3.25 0 1 0 6.5 0 a3.25 3.25 0 1 0 -6.5 0z" fill="black"></path>
            <path d="M425.75 91 a3.25 3.25 0 1 0 6.5 0 a3.25 3.25 0 1 0 -6.5 0zM451.75 65 a3.25 3.25 0 1 0 6.5 0 a3.25 3.25 0 1 0 -6.5 0z" fill="black"></path>
            <path d="M1543.75 247 a3.25 3.25 0 1 0 6.5 0 a3.25 3.25 0 1 0 -6.5 0zM1595.75 273 a3.25 3.25 0 1 0 6.5 0 a3.25 3.25 0 1 0 -6.5 0zM1543.75 169 a3.25 3.25 0 1 0 6.5 0 a3.25 3.25 0 1 0 -6.5 0zM1517.75 221 a3.25 3.25 0 1 0 6.5 0 a3.25 3.25 0 1 0 -6.5 0z" fill="black"></path>
            <path d="M295.75 1547 a3.25 3.25 0 1 0 6.5 0 a3.25 3.25 0 1 0 -6.5 0zM347.75 351 a3.25 3.25 0 1 0 6.5 0 a3.25 3.25 0 1 0 -6.5 0zM451.75 1443 a3.25 3.25 0 1 0 6.5 0 a3.25 3.25 0 1 0 -6.5 0zM321.75 1599 a3.25 3.25 0 1 0 6.5 0 a3.25 3.25 0 1 0 -6.5 0zM321.75 923 a3.25 3.25 0 1 0 6.5 0 a3.25 3.25 0 1 0 -6.5 0zM269.75 1547 a3.25 3.25 0 1 0 6.5 0 a3.25 3.25 0 1 0 -6.5 0zM217.75 1625 a3.25 3.25 0 1 0 6.5 0 a3.25 3.25 0 1 0 -6.5 0zM321.75 637 a3.25 3.25 0 1 0 6.5 0 a3.25 3.25 0 1 0 -6.5 0zM347.75 1625 a3.25 3.25 0 1 0 6.5 0 a3.25 3.25 0 1 0 -6.5 0zM295.75 1183 a3.25 3.25 0 1 0 6.5 0 a3.25 3.25 0 1 0 -6.5 0zM347.75 637 a3.25 3.25 0 1 0 6.5 0 a3.25 3.25 0 1 0 -6.5 0zM399.75 897 a3.25 3.25 0 1 0 6.5 0 a3.25 3.25 0 1 0 -6.5 0zM347.75 533 a3.25 3.25 0 1 0 6.5 0 a3.25 3.25 0 1 0 -6.5 0zM217.75 1469 a3.25 3.25 0 1 0 6.5 0 a3.25 3.25 0 1 0 -6.5 0zM347.75 481 a3.25 3.25 0 1 0 6.5 0 a3.25 3.25 0 1 0 -6.5 0zM347.75 429 a3.25 3.25 0 1 0 6.5 0 a3.25 3.25 0 1 0 -6.5 0z" fill="black"></path>
        </mask>
    </defs>
</svg>