<svg xmlns="http://www.w3.org/2000/svg" version="1.1" xmlns:xlink="http://www.w3.org/1999/xlink" xmlns:svgjs="http://svgjs.dev/svgjs" width="1920" height="1680" preserveAspectRatio="none" viewBox="0 0 1920 1680">
    <g mask="url(&quot;#SvgjsMask2224&quot;)" fill="none">
        <rect width="1920" height="1680" x="0" y="0" fill="#0e2a47"></rect>
        <g mask="url(&quot;#SvgjsMask2226&quot;)">
            <path d="M975 -15L975 15L975 45L975 75L975 105L975 135" stroke="url(&quot;#SvgjsLinearGradient2225&quot;)" stroke-width="5"></path>
            <path d="M967.5 135 a7.5 7.5 0 1 0 15 0 a7.5 7.5 0 1 0 -15 0z" fill="url(&quot;#SvgjsLinearGradient2225&quot;)"></path>
            <path d="M945 105L915 135M945 255L915 285L915 315L915 345M945 195L975 225L975 255L975 285L975 315M945 -15L945 15L945 45L945 75L945 105L945 135L945 165L945 195L945 225L945 255L945 285L945 315L945 345" stroke="url(&quot;#SvgjsLinearGradient2225&quot;)" stroke-width="5"></path>
            <path d="M937.5 345 a7.5 7.5 0 1 0 15 0 a7.5 7.5 0 1 0 -15 0zM907.5 135 a7.5 7.5 0 1 0 15 0 a7.5 7.5 0 1 0 -15 0zM907.5 345 a7.5 7.5 0 1 0 15 0 a7.5 7.5 0 1 0 -15 0zM967.5 315 a7.5 7.5 0 1 0 15 0 a7.5 7.5 0 1 0 -15 0z" fill="url(&quot;#SvgjsLinearGradient2225&quot;)"></path>
            <path d="M1035 375L1035 405L1035 435M1035 615L1005 645L1005 675L1005 705L1005 735L1005 765L1005 795L1005 825L975 855L945 885M1065 465L1035 495L1035 525L1035 555L1035 585L1005 615L975 645L975 675M975 945L975 975M1005 975L1035 1005L1035 1035L1035 1065L1035 1095L1035 1125M1005 165L975 195M1035 285L1005 315L1005 345L1005 375L1005 405M1065 585L1065 615L1065 645M1035 795L1065 825L1095 855L1095 885L1095 915L1095 945L1095 975L1095 1005L1095 1035L1095 1065M1005 -15L1005 15L1005 45L1005 75L1005 105L1005 135L1005 165L1005 195L1035 225L1035 255L1035 285L1035 315L1035 345L1035 375L1065 405L1065 435L1065 465L1065 495L1065 525L1065 555L1065 585L1035 615L1035 645L1035 675L1035 705L1035 735L1035 765L1035 795L1035 825L1005 855L1005 885L975 915L975 945L1005 975L1005 1005L1005 1035" stroke="url(&quot;#SvgjsLinearGradient2225&quot;)" stroke-width="5"></path>
            <path d="M997.5 1035 a7.5 7.5 0 1 0 15 0 a7.5 7.5 0 1 0 -15 0zM1027.5 435 a7.5 7.5 0 1 0 15 0 a7.5 7.5 0 1 0 -15 0zM937.5 885 a7.5 7.5 0 1 0 15 0 a7.5 7.5 0 1 0 -15 0zM967.5 675 a7.5 7.5 0 1 0 15 0 a7.5 7.5 0 1 0 -15 0zM967.5 975 a7.5 7.5 0 1 0 15 0 a7.5 7.5 0 1 0 -15 0zM1027.5 1125 a7.5 7.5 0 1 0 15 0 a7.5 7.5 0 1 0 -15 0zM967.5 195 a7.5 7.5 0 1 0 15 0 a7.5 7.5 0 1 0 -15 0zM997.5 405 a7.5 7.5 0 1 0 15 0 a7.5 7.5 0 1 0 -15 0zM1057.5 645 a7.5 7.5 0 1 0 15 0 a7.5 7.5 0 1 0 -15 0zM1087.5 1065 a7.5 7.5 0 1 0 15 0 a7.5 7.5 0 1 0 -15 0z" fill="url(&quot;#SvgjsLinearGradient2225&quot;)"></path>
            <path d="M885 435L915 465L915 495L915 525L915 555L915 585M885 255L855 285M885 165L915 195M885 315L855 345L855 375L855 405L855 435M885 645L915 675L915 705M885 615L855 645L855 675L855 705L855 735L855 765L855 795M915 -15L915 15L915 45L885 75L885 105L885 135L885 165L885 195L885 225L885 255L885 285L885 315L885 345L885 375L885 405L885 435L885 465L885 495L885 525L885 555L885 585L885 615L885 645L885 675" stroke="url(&quot;#SvgjsLinearGradient2225&quot;)" stroke-width="5"></path>
            <path d="M877.5 675 a7.5 7.5 0 1 0 15 0 a7.5 7.5 0 1 0 -15 0zM907.5 585 a7.5 7.5 0 1 0 15 0 a7.5 7.5 0 1 0 -15 0zM847.5 285 a7.5 7.5 0 1 0 15 0 a7.5 7.5 0 1 0 -15 0zM907.5 195 a7.5 7.5 0 1 0 15 0 a7.5 7.5 0 1 0 -15 0zM847.5 435 a7.5 7.5 0 1 0 15 0 a7.5 7.5 0 1 0 -15 0zM907.5 705 a7.5 7.5 0 1 0 15 0 a7.5 7.5 0 1 0 -15 0zM847.5 795 a7.5 7.5 0 1 0 15 0 a7.5 7.5 0 1 0 -15 0z" fill="url(&quot;#SvgjsLinearGradient2225&quot;)"></path>
            <path d="M1095 585L1125 615L1125 645L1125 675L1125 705M1095 555L1125 585M1035 -15L1035 15L1035 45L1035 75L1035 105L1035 135L1035 165L1035 195L1065 225L1065 255L1065 285L1065 315L1065 345L1065 375L1095 405L1095 435L1095 465L1095 495L1095 525L1095 555L1095 585L1095 615" stroke="url(&quot;#SvgjsLinearGradient2225&quot;)" stroke-width="5"></path>
            <path d="M1087.5 615 a7.5 7.5 0 1 0 15 0 a7.5 7.5 0 1 0 -15 0zM1117.5 705 a7.5 7.5 0 1 0 15 0 a7.5 7.5 0 1 0 -15 0zM1117.5 585 a7.5 7.5 0 1 0 15 0 a7.5 7.5 0 1 0 -15 0z" fill="url(&quot;#SvgjsLinearGradient2225&quot;)"></path>
            <path d="M855 135L825 165L825 195L825 225L825 255M885 -15L885 15L885 45L855 75L855 105L855 135L855 165L855 195" stroke="url(&quot;#SvgjsLinearGradient2225&quot;)" stroke-width="5"></path>
            <path d="M847.5 195 a7.5 7.5 0 1 0 15 0 a7.5 7.5 0 1 0 -15 0zM817.5 255 a7.5 7.5 0 1 0 15 0 a7.5 7.5 0 1 0 -15 0z" fill="url(&quot;#SvgjsLinearGradient2225&quot;)"></path>
            <path d="M1065 -15L1065 15L1065 45L1065 75L1065 105L1065 135L1065 165L1065 195L1095 225L1095 255L1095 285L1095 315L1095 345L1095 375L1125 405L1125 435L1125 465L1125 495L1125 525" stroke="url(&quot;#SvgjsLinearGradient2225&quot;)" stroke-width="5"></path>
            <path d="M1117.5 525 a7.5 7.5 0 1 0 15 0 a7.5 7.5 0 1 0 -15 0z" fill="url(&quot;#SvgjsLinearGradient2225&quot;)"></path>
            <path d="M825 105L825 135M765 525L735 555L735 585M795 735L765 765L765 795M765 585L765 615L765 645L765 675L765 705L765 735M795 675L825 705L825 735M765 345L765 375L765 405L765 435L765 465L795 495L795 525L795 555L795 585L825 615L825 645L825 675M795 765L825 795L825 825M855 -15L855 15L825 45L825 75L825 105L795 135L795 165L795 195L795 225L795 255L795 285L795 315L765 345L735 375L735 405L735 435L735 465L765 495L765 525L765 555L765 585L795 615L795 645L795 675L795 705L795 735L795 765L795 795L795 825L795 855" stroke="url(&quot;#SvgjsLinearGradient2225&quot;)" stroke-width="5"></path>
            <path d="M787.5 855 a7.5 7.5 0 1 0 15 0 a7.5 7.5 0 1 0 -15 0zM817.5 135 a7.5 7.5 0 1 0 15 0 a7.5 7.5 0 1 0 -15 0zM727.5 585 a7.5 7.5 0 1 0 15 0 a7.5 7.5 0 1 0 -15 0zM757.5 795 a7.5 7.5 0 1 0 15 0 a7.5 7.5 0 1 0 -15 0zM757.5 735 a7.5 7.5 0 1 0 15 0 a7.5 7.5 0 1 0 -15 0zM817.5 735 a7.5 7.5 0 1 0 15 0 a7.5 7.5 0 1 0 -15 0zM817.5 675 a7.5 7.5 0 1 0 15 0 a7.5 7.5 0 1 0 -15 0zM817.5 825 a7.5 7.5 0 1 0 15 0 a7.5 7.5 0 1 0 -15 0z" fill="url(&quot;#SvgjsLinearGradient2225&quot;)"></path>
            <path d="M1095 75L1125 105L1125 135L1125 165L1125 195M1155 525L1185 555M1155 405L1185 435L1185 465L1185 495L1185 525L1215 555L1215 585M1155 555L1155 585L1155 615L1155 645M1215 615L1185 645L1155 675L1155 705M1185 585L1185 615M1095 -15L1095 15L1095 45L1095 75L1095 105L1095 135L1095 165L1095 195L1125 225L1125 255L1125 285L1125 315L1125 345L1125 375L1155 405L1155 435L1155 465L1155 495L1155 525L1155 555L1185 585L1215 615L1215 645L1215 675L1245 705L1245 735" stroke="url(&quot;#SvgjsLinearGradient2225&quot;)" stroke-width="5"></path>
            <path d="M1237.5 735 a7.5 7.5 0 1 0 15 0 a7.5 7.5 0 1 0 -15 0zM1117.5 195 a7.5 7.5 0 1 0 15 0 a7.5 7.5 0 1 0 -15 0zM1177.5 555 a7.5 7.5 0 1 0 15 0 a7.5 7.5 0 1 0 -15 0zM1207.5 585 a7.5 7.5 0 1 0 15 0 a7.5 7.5 0 1 0 -15 0zM1147.5 645 a7.5 7.5 0 1 0 15 0 a7.5 7.5 0 1 0 -15 0zM1147.5 705 a7.5 7.5 0 1 0 15 0 a7.5 7.5 0 1 0 -15 0zM1177.5 615 a7.5 7.5 0 1 0 15 0 a7.5 7.5 0 1 0 -15 0z" fill="url(&quot;#SvgjsLinearGradient2225&quot;)"></path>
            <path d="M675 555L705 585L705 615M645 825L675 855L675 885L675 915L675 945M645 735L675 765L675 795L705 825L705 855L705 885L705 915L735 945L735 975L735 1005M765 225L735 255L735 285L705 315M645 705L675 735L705 765L705 795L735 825L735 855L735 885L735 915L765 945M675 495L705 525L705 555M645 1155L615 1185L615 1215L615 1245L615 1275L615 1305L615 1335M645 945L615 975L615 1005L615 1035L615 1065L615 1095L615 1125M675 585L675 615L675 645L675 675L675 705L705 735L735 765L735 795M645 1095L675 1125L675 1155L675 1185L675 1215L675 1245L675 1275L705 1305L705 1335L705 1365L705 1395M825 -15L825 15L795 45L795 75L795 105L765 135L765 165L765 195L765 225L765 255L765 285L765 315L735 345L705 375L675 405L675 435L675 465L675 495L675 525L675 555L675 585L645 615L645 645L645 675L645 705L645 735L645 765L645 795L645 825L645 855L645 885L645 915L645 945L645 975L645 1005L645 1035L645 1065L645 1095L645 1125L645 1155L645 1185L645 1215" stroke="url(&quot;#SvgjsLinearGradient2225&quot;)" stroke-width="5"></path>
            <path d="M637.5 1215 a7.5 7.5 0 1 0 15 0 a7.5 7.5 0 1 0 -15 0zM697.5 615 a7.5 7.5 0 1 0 15 0 a7.5 7.5 0 1 0 -15 0zM667.5 945 a7.5 7.5 0 1 0 15 0 a7.5 7.5 0 1 0 -15 0zM727.5 1005 a7.5 7.5 0 1 0 15 0 a7.5 7.5 0 1 0 -15 0zM697.5 315 a7.5 7.5 0 1 0 15 0 a7.5 7.5 0 1 0 -15 0zM757.5 945 a7.5 7.5 0 1 0 15 0 a7.5 7.5 0 1 0 -15 0zM697.5 555 a7.5 7.5 0 1 0 15 0 a7.5 7.5 0 1 0 -15 0zM607.5 1335 a7.5 7.5 0 1 0 15 0 a7.5 7.5 0 1 0 -15 0zM607.5 1125 a7.5 7.5 0 1 0 15 0 a7.5 7.5 0 1 0 -15 0zM727.5 795 a7.5 7.5 0 1 0 15 0 a7.5 7.5 0 1 0 -15 0zM697.5 1395 a7.5 7.5 0 1 0 15 0 a7.5 7.5 0 1 0 -15 0z" fill="url(&quot;#SvgjsLinearGradient2225&quot;)"></path>
            <path d="M1125 -15L1125 15" stroke="url(&quot;#SvgjsLinearGradient2225&quot;)" stroke-width="5"></path>
            <path d="M1117.5 15 a7.5 7.5 0 1 0 15 0 a7.5 7.5 0 1 0 -15 0z" fill="url(&quot;#SvgjsLinearGradient2225&quot;)"></path>
            <path d="M765 75L735 105M795 -15L795 15L765 45L765 75L765 105L735 135L735 165L735 195" stroke="url(&quot;#SvgjsLinearGradient2225&quot;)" stroke-width="5"></path>
            <path d="M727.5 195 a7.5 7.5 0 1 0 15 0 a7.5 7.5 0 1 0 -15 0zM727.5 105 a7.5 7.5 0 1 0 15 0 a7.5 7.5 0 1 0 -15 0z" fill="url(&quot;#SvgjsLinearGradient2225&quot;)"></path>
            <path d="M1155 45L1125 75M1155 -15L1155 15L1155 45L1155 75L1155 105L1155 135L1155 165L1155 195L1155 225L1155 255L1155 285L1155 315" stroke="url(&quot;#SvgjsLinearGradient2225&quot;)" stroke-width="5"></path>
            <path d="M1147.5 315 a7.5 7.5 0 1 0 15 0 a7.5 7.5 0 1 0 -15 0zM1117.5 75 a7.5 7.5 0 1 0 15 0 a7.5 7.5 0 1 0 -15 0z" fill="url(&quot;#SvgjsLinearGradient2225&quot;)"></path>
            <path d="M675 285L645 315L645 345L645 375M735 45L735 75M675 195L705 225M675 255L705 285M705 165L705 195M765 -15L765 15L735 45L705 75L705 105L705 135L705 165L675 195L675 225L675 255L675 285L675 315L675 345L675 375L645 405L645 435L645 465L645 495L645 525L645 555L645 585" stroke="url(&quot;#SvgjsLinearGradient2225&quot;)" stroke-width="5"></path>
            <path d="M637.5 585 a7.5 7.5 0 1 0 15 0 a7.5 7.5 0 1 0 -15 0zM637.5 375 a7.5 7.5 0 1 0 15 0 a7.5 7.5 0 1 0 -15 0zM727.5 75 a7.5 7.5 0 1 0 15 0 a7.5 7.5 0 1 0 -15 0zM697.5 225 a7.5 7.5 0 1 0 15 0 a7.5 7.5 0 1 0 -15 0zM697.5 285 a7.5 7.5 0 1 0 15 0 a7.5 7.5 0 1 0 -15 0zM697.5 195 a7.5 7.5 0 1 0 15 0 a7.5 7.5 0 1 0 -15 0z" fill="url(&quot;#SvgjsLinearGradient2225&quot;)"></path>
            <path d="M1185 165L1215 195M1185 315L1185 345L1185 375L1185 405L1215 435L1215 465L1215 495M1215 345L1215 375L1215 405M1185 -15L1185 15L1185 45L1185 75L1185 105L1185 135L1185 165L1185 195L1185 225L1185 255L1185 285L1185 315L1215 345L1245 375L1245 405L1245 435L1245 465L1245 495L1245 525L1245 555L1245 585L1245 615L1245 645" stroke="url(&quot;#SvgjsLinearGradient2225&quot;)" stroke-width="5"></path>
            <path d="M1237.5 645 a7.5 7.5 0 1 0 15 0 a7.5 7.5 0 1 0 -15 0zM1207.5 195 a7.5 7.5 0 1 0 15 0 a7.5 7.5 0 1 0 -15 0zM1207.5 495 a7.5 7.5 0 1 0 15 0 a7.5 7.5 0 1 0 -15 0zM1207.5 405 a7.5 7.5 0 1 0 15 0 a7.5 7.5 0 1 0 -15 0z" fill="url(&quot;#SvgjsLinearGradient2225&quot;)"></path>
            <path d="M585 915L615 945M615 855L615 885M645 255L645 285M735 -15L735 15L705 45L675 75L675 105L675 135L675 165L645 195L645 225L645 255L615 285L615 315L615 345L615 375L615 405L615 435L615 465L615 495L615 525L615 555L615 585L615 615L615 645L615 675L615 705L615 735L615 765L615 795L615 825L615 855L585 885L585 915L585 945" stroke="url(&quot;#SvgjsLinearGradient2225&quot;)" stroke-width="5"></path>
            <path d="M577.5 945 a7.5 7.5 0 1 0 15 0 a7.5 7.5 0 1 0 -15 0zM607.5 945 a7.5 7.5 0 1 0 15 0 a7.5 7.5 0 1 0 -15 0zM607.5 885 a7.5 7.5 0 1 0 15 0 a7.5 7.5 0 1 0 -15 0zM637.5 285 a7.5 7.5 0 1 0 15 0 a7.5 7.5 0 1 0 -15 0z" fill="url(&quot;#SvgjsLinearGradient2225&quot;)"></path>
            <path d="M1275 525L1305 555L1305 585L1305 615L1305 645L1305 675L1305 705M1275 735L1305 765L1335 795L1335 825L1335 855M1305 435L1305 465L1305 495M1215 135L1215 165M1215 255L1245 285L1245 315M1275 375L1275 405L1275 435M1275 795L1305 825L1305 855L1305 885L1305 915M1215 -15L1215 15L1215 45L1215 75L1215 105L1215 135L1245 165L1245 195L1215 225L1215 255L1215 285L1215 315L1245 345L1275 375L1305 405L1305 435L1275 465L1275 495L1275 525L1275 555L1275 585L1275 615L1275 645L1275 675L1275 705L1275 735L1275 765L1275 795L1275 825" stroke="url(&quot;#SvgjsLinearGradient2225&quot;)" stroke-width="5"></path>
            <path d="M1267.5 825 a7.5 7.5 0 1 0 15 0 a7.5 7.5 0 1 0 -15 0zM1297.5 705 a7.5 7.5 0 1 0 15 0 a7.5 7.5 0 1 0 -15 0zM1327.5 855 a7.5 7.5 0 1 0 15 0 a7.5 7.5 0 1 0 -15 0zM1297.5 495 a7.5 7.5 0 1 0 15 0 a7.5 7.5 0 1 0 -15 0zM1207.5 165 a7.5 7.5 0 1 0 15 0 a7.5 7.5 0 1 0 -15 0zM1237.5 315 a7.5 7.5 0 1 0 15 0 a7.5 7.5 0 1 0 -15 0zM1267.5 435 a7.5 7.5 0 1 0 15 0 a7.5 7.5 0 1 0 -15 0zM1297.5 915 a7.5 7.5 0 1 0 15 0 a7.5 7.5 0 1 0 -15 0z" fill="url(&quot;#SvgjsLinearGradient2225&quot;)"></path>
            <path d="M585 765L555 795L555 825L555 855M585 735L555 765M585 675L555 705M585 555L555 585L555 615L555 645L555 675L525 705L525 735L525 765M555 885L525 915L525 945M705 -15L705 15L675 45L645 75L645 105L645 135L645 165L615 195L615 225L615 255L585 285L585 315L585 345L585 375L585 405L585 435L585 465L585 495L585 525L585 555L585 585L585 615L585 645L585 675L585 705L585 735L585 765L585 795L585 825L585 855L555 885L555 915" stroke="url(&quot;#SvgjsLinearGradient2225&quot;)" stroke-width="5"></path>
            <path d="M547.5 915 a7.5 7.5 0 1 0 15 0 a7.5 7.5 0 1 0 -15 0zM547.5 855 a7.5 7.5 0 1 0 15 0 a7.5 7.5 0 1 0 -15 0zM547.5 765 a7.5 7.5 0 1 0 15 0 a7.5 7.5 0 1 0 -15 0zM547.5 705 a7.5 7.5 0 1 0 15 0 a7.5 7.5 0 1 0 -15 0zM517.5 765 a7.5 7.5 0 1 0 15 0 a7.5 7.5 0 1 0 -15 0zM517.5 945 a7.5 7.5 0 1 0 15 0 a7.5 7.5 0 1 0 -15 0z" fill="url(&quot;#SvgjsLinearGradient2225&quot;)"></path>
            <path d="M1335 645L1365 675L1365 705L1395 735L1395 765L1395 795L1395 825L1395 855L1395 885M1365 975L1395 1005L1395 1035L1395 1065L1395 1095L1395 1125L1395 1155L1395 1185M1335 615L1365 645M1365 1095L1335 1125L1335 1155M1245 105L1275 135M1245 15L1275 45L1275 75L1275 105M1335 585L1365 615L1395 645L1395 675M1365 915L1395 945L1395 975L1425 1005L1425 1035L1425 1065L1425 1095L1425 1125L1425 1155L1425 1185L1425 1215L1425 1245L1425 1275L1425 1305L1425 1335L1425 1365L1425 1395M1365 1185L1365 1215L1365 1245L1365 1275M1335 1245L1305 1275L1305 1305L1305 1335M1275 225L1245 255M1245 -15L1245 15L1245 45L1245 75L1245 105L1245 135L1275 165L1275 195L1275 225L1275 255L1275 285L1275 315L1275 345L1305 375L1335 405L1335 435L1335 465L1335 495L1335 525L1335 555L1335 585L1335 615L1335 645L1335 675L1335 705L1365 735L1365 765L1365 795L1365 825L1365 855L1365 885L1365 915L1365 945L1365 975L1365 1005L1365 1035L1365 1065L1365 1095L1365 1125L1365 1155L1365 1185L1335 1215L1335 1245L1335 1275" stroke="url(&quot;#SvgjsLinearGradient2225&quot;)" stroke-width="5"></path>
            <path d="M1327.5 1275 a7.5 7.5 0 1 0 15 0 a7.5 7.5 0 1 0 -15 0zM1387.5 885 a7.5 7.5 0 1 0 15 0 a7.5 7.5 0 1 0 -15 0zM1387.5 1185 a7.5 7.5 0 1 0 15 0 a7.5 7.5 0 1 0 -15 0zM1357.5 645 a7.5 7.5 0 1 0 15 0 a7.5 7.5 0 1 0 -15 0zM1327.5 1155 a7.5 7.5 0 1 0 15 0 a7.5 7.5 0 1 0 -15 0zM1267.5 135 a7.5 7.5 0 1 0 15 0 a7.5 7.5 0 1 0 -15 0zM1267.5 105 a7.5 7.5 0 1 0 15 0 a7.5 7.5 0 1 0 -15 0zM1387.5 675 a7.5 7.5 0 1 0 15 0 a7.5 7.5 0 1 0 -15 0zM1417.5 1395 a7.5 7.5 0 1 0 15 0 a7.5 7.5 0 1 0 -15 0zM1357.5 1275 a7.5 7.5 0 1 0 15 0 a7.5 7.5 0 1 0 -15 0zM1297.5 1335 a7.5 7.5 0 1 0 15 0 a7.5 7.5 0 1 0 -15 0zM1237.5 255 a7.5 7.5 0 1 0 15 0 a7.5 7.5 0 1 0 -15 0z" fill="url(&quot;#SvgjsLinearGradient2225&quot;)"></path>
            <path d="M495 615L525 645M555 525L555 555M525 555L525 585L525 615M525 795L495 825L495 855L495 885M495 735L465 765L465 795L465 825L465 855L465 885L465 915M495 705L465 735M675 -15L675 15L645 45L615 75L615 105L615 135L615 165L585 195L585 225L585 255L555 285L555 315L555 345L555 375L555 405L555 435L555 465L555 495L555 525L525 555L495 585L495 615L495 645L495 675L495 705L495 735L495 765L525 795L525 825L525 855" stroke="url(&quot;#SvgjsLinearGradient2225&quot;)" stroke-width="5"></path>
            <path d="M517.5 855 a7.5 7.5 0 1 0 15 0 a7.5 7.5 0 1 0 -15 0zM517.5 645 a7.5 7.5 0 1 0 15 0 a7.5 7.5 0 1 0 -15 0zM547.5 555 a7.5 7.5 0 1 0 15 0 a7.5 7.5 0 1 0 -15 0zM517.5 615 a7.5 7.5 0 1 0 15 0 a7.5 7.5 0 1 0 -15 0zM487.5 885 a7.5 7.5 0 1 0 15 0 a7.5 7.5 0 1 0 -15 0zM457.5 915 a7.5 7.5 0 1 0 15 0 a7.5 7.5 0 1 0 -15 0zM457.5 735 a7.5 7.5 0 1 0 15 0 a7.5 7.5 0 1 0 -15 0z" fill="url(&quot;#SvgjsLinearGradient2225&quot;)"></path>
            <path d="M1485 1185L1515 1215M1455 825L1425 855L1425 885L1425 915L1425 945L1425 975L1455 1005L1455 1035L1455 1065L1455 1095L1455 1125M1455 795L1425 825M1485 1155L1455 1185L1455 1215M1485 1125L1515 1155L1515 1185M1455 735L1425 765L1425 795M1395 585L1395 615M1455 1245L1485 1275L1485 1305L1485 1335L1485 1365L1485 1395M1425 705L1425 735M1455 945L1455 975M1275 -15L1305 15L1305 45L1305 75L1305 105L1305 135L1305 165L1305 195L1305 225L1305 255L1305 285L1305 315L1305 345L1335 375L1365 405L1365 435L1365 465L1365 495L1365 525L1365 555L1395 585L1425 615L1425 645L1425 675L1425 705L1455 735L1455 765L1455 795L1455 825L1455 855L1455 885L1455 915L1455 945L1485 975L1485 1005L1485 1035L1485 1065L1485 1095L1485 1125L1485 1155L1485 1185L1485 1215L1455 1245L1455 1275" stroke="url(&quot;#SvgjsLinearGradient2225&quot;)" stroke-width="5"></path>
            <path d="M1447.5 1275 a7.5 7.5 0 1 0 15 0 a7.5 7.5 0 1 0 -15 0zM1507.5 1215 a7.5 7.5 0 1 0 15 0 a7.5 7.5 0 1 0 -15 0zM1447.5 1125 a7.5 7.5 0 1 0 15 0 a7.5 7.5 0 1 0 -15 0zM1417.5 825 a7.5 7.5 0 1 0 15 0 a7.5 7.5 0 1 0 -15 0zM1447.5 1215 a7.5 7.5 0 1 0 15 0 a7.5 7.5 0 1 0 -15 0zM1507.5 1185 a7.5 7.5 0 1 0 15 0 a7.5 7.5 0 1 0 -15 0zM1417.5 795 a7.5 7.5 0 1 0 15 0 a7.5 7.5 0 1 0 -15 0zM1387.5 615 a7.5 7.5 0 1 0 15 0 a7.5 7.5 0 1 0 -15 0zM1477.5 1395 a7.5 7.5 0 1 0 15 0 a7.5 7.5 0 1 0 -15 0zM1417.5 735 a7.5 7.5 0 1 0 15 0 a7.5 7.5 0 1 0 -15 0zM1447.5 975 a7.5 7.5 0 1 0 15 0 a7.5 7.5 0 1 0 -15 0z" fill="url(&quot;#SvgjsLinearGradient2225&quot;)"></path>
            <path d="M435 945L465 975L465 1005L465 1035M465 1215L435 1245L435 1275L405 1305L405 1335L405 1365L405 1395M465 1155L495 1185L495 1215M435 1035L405 1065L405 1095L405 1125L405 1155L405 1185L405 1215L405 1245M435 885L405 915L405 945L405 975M495 1305L525 1335L525 1365L525 1395M465 1245L465 1275L465 1305L465 1335L435 1365M555 225L555 255M435 1005L405 1035L375 1065L375 1095L375 1125L375 1155L345 1185M465 1185L435 1215M465 675L465 705M645 -15L645 15L615 45L585 75L585 105L585 135L585 165L555 195L555 225L525 255L525 285L525 315L525 345L525 375L525 405L525 435L525 465L525 495L525 525L495 555L465 585L465 615L465 645L465 675L435 705L435 735L435 765L435 795L435 825L435 855L435 885L435 915L435 945L435 975L435 1005L435 1035L435 1065L435 1095L465 1125L465 1155L465 1185L465 1215L465 1245L495 1275L495 1305L495 1335" stroke="url(&quot;#SvgjsLinearGradient2225&quot;)" stroke-width="5"></path>
            <path d="M487.5 1335 a7.5 7.5 0 1 0 15 0 a7.5 7.5 0 1 0 -15 0zM457.5 1035 a7.5 7.5 0 1 0 15 0 a7.5 7.5 0 1 0 -15 0zM397.5 1395 a7.5 7.5 0 1 0 15 0 a7.5 7.5 0 1 0 -15 0zM487.5 1215 a7.5 7.5 0 1 0 15 0 a7.5 7.5 0 1 0 -15 0zM397.5 1245 a7.5 7.5 0 1 0 15 0 a7.5 7.5 0 1 0 -15 0zM397.5 975 a7.5 7.5 0 1 0 15 0 a7.5 7.5 0 1 0 -15 0zM517.5 1395 a7.5 7.5 0 1 0 15 0 a7.5 7.5 0 1 0 -15 0zM427.5 1365 a7.5 7.5 0 1 0 15 0 a7.5 7.5 0 1 0 -15 0zM547.5 255 a7.5 7.5 0 1 0 15 0 a7.5 7.5 0 1 0 -15 0zM337.5 1185 a7.5 7.5 0 1 0 15 0 a7.5 7.5 0 1 0 -15 0zM427.5 1215 a7.5 7.5 0 1 0 15 0 a7.5 7.5 0 1 0 -15 0zM457.5 705 a7.5 7.5 0 1 0 15 0 a7.5 7.5 0 1 0 -15 0z" fill="url(&quot;#SvgjsLinearGradient2225&quot;)"></path>
            <path d="M1305 -15L1335 15L1335 45L1335 75L1335 105L1335 135L1335 165L1335 195L1335 225L1335 255L1335 285L1335 315L1335 345L1365 375L1395 405L1395 435L1395 465L1395 495L1395 525L1395 555L1425 585L1455 615L1455 645L1455 675L1455 705L1485 735L1485 765L1485 795L1485 825L1485 855L1485 885L1485 915L1485 945L1515 975L1515 1005L1515 1035L1515 1065L1515 1095" stroke="url(&quot;#SvgjsLinearGradient2225&quot;)" stroke-width="5"></path>
            <path d="M1507.5 1095 a7.5 7.5 0 1 0 15 0 a7.5 7.5 0 1 0 -15 0z" fill="url(&quot;#SvgjsLinearGradient2225&quot;)"></path>
            <path d="M405 855L405 885M615 -15L615 15L585 45L555 75L555 105L555 135L555 165L525 195L525 225L495 255L495 285L495 315L495 345L495 375L495 405L495 435L495 465L495 495L495 525L465 555L435 585L435 615L435 645L435 675L405 705L405 735L405 765L405 795L405 825L405 855L375 885L375 915" stroke="url(&quot;#SvgjsLinearGradient2225&quot;)" stroke-width="5"></path>
            <path d="M367.5 915 a7.5 7.5 0 1 0 15 0 a7.5 7.5 0 1 0 -15 0zM397.5 885 a7.5 7.5 0 1 0 15 0 a7.5 7.5 0 1 0 -15 0z" fill="url(&quot;#SvgjsLinearGradient2225&quot;)"></path>
            <path d="M1425 525L1425 555M1545 1185L1575 1215L1575 1245L1575 1275L1575 1305L1575 1335L1575 1365L1575 1395M1365 195L1395 225L1395 255L1395 285L1395 315L1395 345M1365 105L1395 135M1365 45L1395 75L1395 105M1545 1275L1515 1305L1515 1335L1545 1365L1545 1395M1545 1245L1515 1275M1335 -15L1365 15L1365 45L1365 75L1365 105L1365 135L1365 165L1365 195L1365 225L1365 255L1365 285L1365 315L1365 345L1395 375L1425 405L1425 435L1425 465L1425 495L1425 525L1455 555L1455 585L1485 615L1485 645L1485 675L1485 705L1515 735L1515 765L1515 795L1515 825L1515 855L1515 885L1515 915L1515 945L1545 975L1545 1005L1545 1035L1545 1065L1545 1095L1545 1125L1545 1155L1545 1185L1545 1215L1545 1245L1545 1275L1545 1305L1545 1335" stroke="url(&quot;#SvgjsLinearGradient2225&quot;)" stroke-width="5"></path>
            <path d="M1537.5 1335 a7.5 7.5 0 1 0 15 0 a7.5 7.5 0 1 0 -15 0zM1417.5 555 a7.5 7.5 0 1 0 15 0 a7.5 7.5 0 1 0 -15 0zM1567.5 1395 a7.5 7.5 0 1 0 15 0 a7.5 7.5 0 1 0 -15 0zM1387.5 345 a7.5 7.5 0 1 0 15 0 a7.5 7.5 0 1 0 -15 0zM1387.5 135 a7.5 7.5 0 1 0 15 0 a7.5 7.5 0 1 0 -15 0zM1387.5 105 a7.5 7.5 0 1 0 15 0 a7.5 7.5 0 1 0 -15 0zM1537.5 1395 a7.5 7.5 0 1 0 15 0 a7.5 7.5 0 1 0 -15 0zM1507.5 1275 a7.5 7.5 0 1 0 15 0 a7.5 7.5 0 1 0 -15 0z" fill="url(&quot;#SvgjsLinearGradient2225&quot;)"></path>
            <path d="M585 -15L585 15L555 45L525 75L525 105L525 135L525 165" stroke="url(&quot;#SvgjsLinearGradient2225&quot;)" stroke-width="5"></path>
            <path d="M517.5 165 a7.5 7.5 0 1 0 15 0 a7.5 7.5 0 1 0 -15 0z" fill="url(&quot;#SvgjsLinearGradient2225&quot;)"></path>
            <path d="M1395 15L1395 45M1425 165L1395 195M1365 -15L1395 15L1425 45L1425 75L1425 105L1425 135L1425 165L1425 195" stroke="url(&quot;#SvgjsLinearGradient2225&quot;)" stroke-width="5"></path>
            <path d="M1417.5 195 a7.5 7.5 0 1 0 15 0 a7.5 7.5 0 1 0 -15 0zM1387.5 45 a7.5 7.5 0 1 0 15 0 a7.5 7.5 0 1 0 -15 0zM1387.5 195 a7.5 7.5 0 1 0 15 0 a7.5 7.5 0 1 0 -15 0z" fill="url(&quot;#SvgjsLinearGradient2225&quot;)"></path>
            <path d="M345 975L345 1005L345 1035L345 1065M405 645L375 675L345 705L345 735M315 1095L345 1125L345 1155M465 495L435 525M315 1005L285 1035L285 1065L285 1095M345 885L315 915L315 945L315 975M345 1215L315 1245L315 1275L315 1305L315 1335L315 1365L315 1395M375 825L345 855L315 885L285 915L285 945L285 975L285 1005M375 795L345 825L315 855L285 885L255 915L255 945M465 375L435 405L435 435L435 465L435 495M345 1245L375 1275L375 1305L375 1335L375 1365L375 1395M555 -15L555 15L525 45L495 75L495 105L495 135L495 165L495 195L495 225L465 255L465 285L465 315L465 345L465 375L465 405L465 435L465 465L465 495L465 525L435 555L405 585L405 615L405 645L405 675L375 705L375 735L375 765L375 795L375 825L375 855L345 885L345 915L345 945L345 975L315 1005L315 1035L315 1065L315 1095L315 1125L315 1155L315 1185L345 1215L345 1245L345 1275" stroke="url(&quot;#SvgjsLinearGradient2225&quot;)" stroke-width="5"></path>
            <path d="M337.5 1275 a7.5 7.5 0 1 0 15 0 a7.5 7.5 0 1 0 -15 0zM337.5 1065 a7.5 7.5 0 1 0 15 0 a7.5 7.5 0 1 0 -15 0zM337.5 735 a7.5 7.5 0 1 0 15 0 a7.5 7.5 0 1 0 -15 0zM337.5 1155 a7.5 7.5 0 1 0 15 0 a7.5 7.5 0 1 0 -15 0zM427.5 525 a7.5 7.5 0 1 0 15 0 a7.5 7.5 0 1 0 -15 0zM277.5 1095 a7.5 7.5 0 1 0 15 0 a7.5 7.5 0 1 0 -15 0zM307.5 975 a7.5 7.5 0 1 0 15 0 a7.5 7.5 0 1 0 -15 0zM307.5 1395 a7.5 7.5 0 1 0 15 0 a7.5 7.5 0 1 0 -15 0zM277.5 1005 a7.5 7.5 0 1 0 15 0 a7.5 7.5 0 1 0 -15 0zM247.5 945 a7.5 7.5 0 1 0 15 0 a7.5 7.5 0 1 0 -15 0zM427.5 495 a7.5 7.5 0 1 0 15 0 a7.5 7.5 0 1 0 -15 0zM367.5 1395 a7.5 7.5 0 1 0 15 0 a7.5 7.5 0 1 0 -15 0z" fill="url(&quot;#SvgjsLinearGradient2225&quot;)"></path>
            <path d="M1575 1035L1605 1065L1605 1095L1605 1125L1605 1155L1635 1185L1635 1215L1635 1245L1635 1275L1635 1305L1665 1335L1665 1365L1635 1395M1455 495L1485 525L1515 555M1515 675L1545 705M1425 225L1455 255L1455 285L1455 315L1455 345L1485 375M1575 945L1605 975L1605 1005L1605 1035L1635 1065L1635 1095L1635 1125L1635 1155L1665 1185L1695 1215L1695 1245L1695 1275L1695 1305L1695 1335M1455 195L1455 225L1485 255L1485 285L1485 315L1485 345L1515 375L1515 405L1515 435M1455 165L1485 195L1485 225M1485 555L1485 585M1455 435L1485 465L1485 495L1515 525M1575 1155L1575 1185M1515 645L1545 675M1395 -15L1425 15L1455 45L1455 75L1455 105L1455 135L1455 165L1455 195L1425 225L1425 255L1425 285L1425 315L1425 345L1455 375L1455 405L1455 435L1455 465L1455 495L1455 525L1485 555L1515 585L1515 615L1515 645L1515 675L1515 705L1545 735L1545 765L1545 795L1545 825L1545 855L1545 885L1545 915L1575 945L1575 975L1575 1005L1575 1035L1575 1065L1575 1095L1575 1125L1575 1155L1605 1185L1605 1215L1605 1245L1605 1275" stroke="url(&quot;#SvgjsLinearGradient2225&quot;)" stroke-width="5"></path>
            <path d="M1597.5 1275 a7.5 7.5 0 1 0 15 0 a7.5 7.5 0 1 0 -15 0zM1627.5 1395 a7.5 7.5 0 1 0 15 0 a7.5 7.5 0 1 0 -15 0zM1507.5 555 a7.5 7.5 0 1 0 15 0 a7.5 7.5 0 1 0 -15 0zM1537.5 705 a7.5 7.5 0 1 0 15 0 a7.5 7.5 0 1 0 -15 0zM1477.5 375 a7.5 7.5 0 1 0 15 0 a7.5 7.5 0 1 0 -15 0zM1687.5 1335 a7.5 7.5 0 1 0 15 0 a7.5 7.5 0 1 0 -15 0zM1507.5 435 a7.5 7.5 0 1 0 15 0 a7.5 7.5 0 1 0 -15 0zM1477.5 225 a7.5 7.5 0 1 0 15 0 a7.5 7.5 0 1 0 -15 0zM1477.5 585 a7.5 7.5 0 1 0 15 0 a7.5 7.5 0 1 0 -15 0zM1507.5 525 a7.5 7.5 0 1 0 15 0 a7.5 7.5 0 1 0 -15 0zM1567.5 1185 a7.5 7.5 0 1 0 15 0 a7.5 7.5 0 1 0 -15 0zM1537.5 675 a7.5 7.5 0 1 0 15 0 a7.5 7.5 0 1 0 -15 0z" fill="url(&quot;#SvgjsLinearGradient2225&quot;)"></path>
            <path d="M405 525L375 555M405 405L375 435L375 465M405 495L375 525M435 285L435 315L435 345L435 375M405 345L375 375M525 -15L525 15L495 45L465 75L465 105L465 135L465 165L465 195L465 225L435 255L435 285L405 315L405 345L405 375L405 405L405 435L405 465L405 495L405 525L405 555L375 585" stroke="url(&quot;#SvgjsLinearGradient2225&quot;)" stroke-width="5"></path>
            <path d="M367.5 585 a7.5 7.5 0 1 0 15 0 a7.5 7.5 0 1 0 -15 0zM367.5 555 a7.5 7.5 0 1 0 15 0 a7.5 7.5 0 1 0 -15 0zM367.5 465 a7.5 7.5 0 1 0 15 0 a7.5 7.5 0 1 0 -15 0zM367.5 525 a7.5 7.5 0 1 0 15 0 a7.5 7.5 0 1 0 -15 0zM427.5 375 a7.5 7.5 0 1 0 15 0 a7.5 7.5 0 1 0 -15 0zM367.5 375 a7.5 7.5 0 1 0 15 0 a7.5 7.5 0 1 0 -15 0z" fill="url(&quot;#SvgjsLinearGradient2225&quot;)"></path>
            <path d="M1485 45L1515 75L1515 105L1545 135L1545 165M1545 315L1515 345M1575 555L1575 585L1575 615L1605 645L1605 675L1605 705M1575 825L1605 855L1635 885L1635 915L1635 945L1635 975L1665 1005L1665 1035L1665 1065M1575 795L1605 825M1545 345L1545 375M1575 765L1605 795L1635 825L1635 855L1665 885L1665 915M1425 -15L1455 15L1485 45L1485 75L1485 105L1515 135L1515 165L1515 195L1515 225L1515 255L1545 285L1545 315L1545 345L1575 375L1575 405L1575 435L1575 465L1575 495L1575 525L1575 555L1545 585L1545 615L1575 645L1575 675L1575 705L1575 735L1575 765L1575 795L1575 825L1575 855L1575 885" stroke="url(&quot;#SvgjsLinearGradient2225&quot;)" stroke-width="5"></path>
            <path d="M1567.5 885 a7.5 7.5 0 1 0 15 0 a7.5 7.5 0 1 0 -15 0zM1537.5 165 a7.5 7.5 0 1 0 15 0 a7.5 7.5 0 1 0 -15 0zM1507.5 345 a7.5 7.5 0 1 0 15 0 a7.5 7.5 0 1 0 -15 0zM1597.5 705 a7.5 7.5 0 1 0 15 0 a7.5 7.5 0 1 0 -15 0zM1657.5 1065 a7.5 7.5 0 1 0 15 0 a7.5 7.5 0 1 0 -15 0zM1597.5 825 a7.5 7.5 0 1 0 15 0 a7.5 7.5 0 1 0 -15 0zM1537.5 375 a7.5 7.5 0 1 0 15 0 a7.5 7.5 0 1 0 -15 0zM1657.5 915 a7.5 7.5 0 1 0 15 0 a7.5 7.5 0 1 0 -15 0z" fill="url(&quot;#SvgjsLinearGradient2225&quot;)"></path>
            <path d="M345 345L315 375M345 615L375 645M345 465L315 495M345 555L315 585L315 615L315 645M405 255L375 285L345 315L315 345L285 375M495 -15L495 15L465 45L435 75L435 105L435 135L435 165L405 195L405 225L405 255L405 285L375 315L345 345L345 375L345 405L345 435L345 465L345 495L345 525L345 555L345 585L345 615L345 645" stroke="url(&quot;#SvgjsLinearGradient2225&quot;)" stroke-width="5"></path>
            <path d="M337.5 645 a7.5 7.5 0 1 0 15 0 a7.5 7.5 0 1 0 -15 0zM307.5 375 a7.5 7.5 0 1 0 15 0 a7.5 7.5 0 1 0 -15 0zM367.5 645 a7.5 7.5 0 1 0 15 0 a7.5 7.5 0 1 0 -15 0zM307.5 495 a7.5 7.5 0 1 0 15 0 a7.5 7.5 0 1 0 -15 0zM307.5 645 a7.5 7.5 0 1 0 15 0 a7.5 7.5 0 1 0 -15 0zM277.5 375 a7.5 7.5 0 1 0 15 0 a7.5 7.5 0 1 0 -15 0z" fill="url(&quot;#SvgjsLinearGradient2225&quot;)"></path>
        </g>
    </g>
    <defs>
        <mask id="SvgjsMask2224">
            <rect width="1920" height="1680" fill="#ffffff"></rect>
        </mask>
        <linearGradient x1="0" y1="730.8" x2="1920" y2="730.8" gradientUnits="userSpaceOnUse" id="SvgjsLinearGradient2225">
            <stop stop-color="rgba(44, 188, 255, 1)" offset="0"></stop>
            <stop stop-color="rgba(221, 17, 51, 1)" offset="0.79"></stop>
        </linearGradient>
        <mask id="SvgjsMask2226">
            <rect width="1920" height="1680" fill="white"></rect>
            <path d="M971.25 135 a3.75 3.75 0 1 0 7.5 0 a3.75 3.75 0 1 0 -7.5 0z" fill="black"></path>
            <path d="M941.25 345 a3.75 3.75 0 1 0 7.5 0 a3.75 3.75 0 1 0 -7.5 0zM911.25 135 a3.75 3.75 0 1 0 7.5 0 a3.75 3.75 0 1 0 -7.5 0zM911.25 345 a3.75 3.75 0 1 0 7.5 0 a3.75 3.75 0 1 0 -7.5 0zM971.25 315 a3.75 3.75 0 1 0 7.5 0 a3.75 3.75 0 1 0 -7.5 0z" fill="black"></path>
            <path d="M1001.25 1035 a3.75 3.75 0 1 0 7.5 0 a3.75 3.75 0 1 0 -7.5 0zM1031.25 435 a3.75 3.75 0 1 0 7.5 0 a3.75 3.75 0 1 0 -7.5 0zM941.25 885 a3.75 3.75 0 1 0 7.5 0 a3.75 3.75 0 1 0 -7.5 0zM971.25 675 a3.75 3.75 0 1 0 7.5 0 a3.75 3.75 0 1 0 -7.5 0zM971.25 975 a3.75 3.75 0 1 0 7.5 0 a3.75 3.75 0 1 0 -7.5 0zM1031.25 1125 a3.75 3.75 0 1 0 7.5 0 a3.75 3.75 0 1 0 -7.5 0zM971.25 195 a3.75 3.75 0 1 0 7.5 0 a3.75 3.75 0 1 0 -7.5 0zM1001.25 405 a3.75 3.75 0 1 0 7.5 0 a3.75 3.75 0 1 0 -7.5 0zM1061.25 645 a3.75 3.75 0 1 0 7.5 0 a3.75 3.75 0 1 0 -7.5 0zM1091.25 1065 a3.75 3.75 0 1 0 7.5 0 a3.75 3.75 0 1 0 -7.5 0z" fill="black"></path>
            <path d="M881.25 675 a3.75 3.75 0 1 0 7.5 0 a3.75 3.75 0 1 0 -7.5 0zM911.25 585 a3.75 3.75 0 1 0 7.5 0 a3.75 3.75 0 1 0 -7.5 0zM851.25 285 a3.75 3.75 0 1 0 7.5 0 a3.75 3.75 0 1 0 -7.5 0zM911.25 195 a3.75 3.75 0 1 0 7.5 0 a3.75 3.75 0 1 0 -7.5 0zM851.25 435 a3.75 3.75 0 1 0 7.5 0 a3.75 3.75 0 1 0 -7.5 0zM911.25 705 a3.75 3.75 0 1 0 7.5 0 a3.75 3.75 0 1 0 -7.5 0zM851.25 795 a3.75 3.75 0 1 0 7.5 0 a3.75 3.75 0 1 0 -7.5 0z" fill="black"></path>
            <path d="M1091.25 615 a3.75 3.75 0 1 0 7.5 0 a3.75 3.75 0 1 0 -7.5 0zM1121.25 705 a3.75 3.75 0 1 0 7.5 0 a3.75 3.75 0 1 0 -7.5 0zM1121.25 585 a3.75 3.75 0 1 0 7.5 0 a3.75 3.75 0 1 0 -7.5 0z" fill="black"></path>
            <path d="M851.25 195 a3.75 3.75 0 1 0 7.5 0 a3.75 3.75 0 1 0 -7.5 0zM821.25 255 a3.75 3.75 0 1 0 7.5 0 a3.75 3.75 0 1 0 -7.5 0z" fill="black"></path>
            <path d="M1121.25 525 a3.75 3.75 0 1 0 7.5 0 a3.75 3.75 0 1 0 -7.5 0z" fill="black"></path>
            <path d="M791.25 855 a3.75 3.75 0 1 0 7.5 0 a3.75 3.75 0 1 0 -7.5 0zM821.25 135 a3.75 3.75 0 1 0 7.5 0 a3.75 3.75 0 1 0 -7.5 0zM731.25 585 a3.75 3.75 0 1 0 7.5 0 a3.75 3.75 0 1 0 -7.5 0zM761.25 795 a3.75 3.75 0 1 0 7.5 0 a3.75 3.75 0 1 0 -7.5 0zM761.25 735 a3.75 3.75 0 1 0 7.5 0 a3.75 3.75 0 1 0 -7.5 0zM821.25 735 a3.75 3.75 0 1 0 7.5 0 a3.75 3.75 0 1 0 -7.5 0zM821.25 675 a3.75 3.75 0 1 0 7.5 0 a3.75 3.75 0 1 0 -7.5 0zM821.25 825 a3.75 3.75 0 1 0 7.5 0 a3.75 3.75 0 1 0 -7.5 0z" fill="black"></path>
            <path d="M1241.25 735 a3.75 3.75 0 1 0 7.5 0 a3.75 3.75 0 1 0 -7.5 0zM1121.25 195 a3.75 3.75 0 1 0 7.5 0 a3.75 3.75 0 1 0 -7.5 0zM1181.25 555 a3.75 3.75 0 1 0 7.5 0 a3.75 3.75 0 1 0 -7.5 0zM1211.25 585 a3.75 3.75 0 1 0 7.5 0 a3.75 3.75 0 1 0 -7.5 0zM1151.25 645 a3.75 3.75 0 1 0 7.5 0 a3.75 3.75 0 1 0 -7.5 0zM1151.25 705 a3.75 3.75 0 1 0 7.5 0 a3.75 3.75 0 1 0 -7.5 0zM1181.25 615 a3.75 3.75 0 1 0 7.5 0 a3.75 3.75 0 1 0 -7.5 0z" fill="black"></path>
            <path d="M641.25 1215 a3.75 3.75 0 1 0 7.5 0 a3.75 3.75 0 1 0 -7.5 0zM701.25 615 a3.75 3.75 0 1 0 7.5 0 a3.75 3.75 0 1 0 -7.5 0zM671.25 945 a3.75 3.75 0 1 0 7.5 0 a3.75 3.75 0 1 0 -7.5 0zM731.25 1005 a3.75 3.75 0 1 0 7.5 0 a3.75 3.75 0 1 0 -7.5 0zM701.25 315 a3.75 3.75 0 1 0 7.5 0 a3.75 3.75 0 1 0 -7.5 0zM761.25 945 a3.75 3.75 0 1 0 7.5 0 a3.75 3.75 0 1 0 -7.5 0zM701.25 555 a3.75 3.75 0 1 0 7.5 0 a3.75 3.75 0 1 0 -7.5 0zM611.25 1335 a3.75 3.75 0 1 0 7.5 0 a3.75 3.75 0 1 0 -7.5 0zM611.25 1125 a3.75 3.75 0 1 0 7.5 0 a3.75 3.75 0 1 0 -7.5 0zM731.25 795 a3.75 3.75 0 1 0 7.5 0 a3.75 3.75 0 1 0 -7.5 0zM701.25 1395 a3.75 3.75 0 1 0 7.5 0 a3.75 3.75 0 1 0 -7.5 0z" fill="black"></path>
            <path d="M1121.25 15 a3.75 3.75 0 1 0 7.5 0 a3.75 3.75 0 1 0 -7.5 0z" fill="black"></path>
            <path d="M731.25 195 a3.75 3.75 0 1 0 7.5 0 a3.75 3.75 0 1 0 -7.5 0zM731.25 105 a3.75 3.75 0 1 0 7.5 0 a3.75 3.75 0 1 0 -7.5 0z" fill="black"></path>
            <path d="M1151.25 315 a3.75 3.75 0 1 0 7.5 0 a3.75 3.75 0 1 0 -7.5 0zM1121.25 75 a3.75 3.75 0 1 0 7.5 0 a3.75 3.75 0 1 0 -7.5 0z" fill="black"></path>
            <path d="M641.25 585 a3.75 3.75 0 1 0 7.5 0 a3.75 3.75 0 1 0 -7.5 0zM641.25 375 a3.75 3.75 0 1 0 7.5 0 a3.75 3.75 0 1 0 -7.5 0zM731.25 75 a3.75 3.75 0 1 0 7.5 0 a3.75 3.75 0 1 0 -7.5 0zM701.25 225 a3.75 3.75 0 1 0 7.5 0 a3.75 3.75 0 1 0 -7.5 0zM701.25 285 a3.75 3.75 0 1 0 7.5 0 a3.75 3.75 0 1 0 -7.5 0zM701.25 195 a3.75 3.75 0 1 0 7.5 0 a3.75 3.75 0 1 0 -7.5 0z" fill="black"></path>
            <path d="M1241.25 645 a3.75 3.75 0 1 0 7.5 0 a3.75 3.75 0 1 0 -7.5 0zM1211.25 195 a3.75 3.75 0 1 0 7.5 0 a3.75 3.75 0 1 0 -7.5 0zM1211.25 495 a3.75 3.75 0 1 0 7.5 0 a3.75 3.75 0 1 0 -7.5 0zM1211.25 405 a3.75 3.75 0 1 0 7.5 0 a3.75 3.75 0 1 0 -7.5 0z" fill="black"></path>
            <path d="M581.25 945 a3.75 3.75 0 1 0 7.5 0 a3.75 3.75 0 1 0 -7.5 0zM611.25 945 a3.75 3.75 0 1 0 7.5 0 a3.75 3.75 0 1 0 -7.5 0zM611.25 885 a3.75 3.75 0 1 0 7.5 0 a3.75 3.75 0 1 0 -7.5 0zM641.25 285 a3.75 3.75 0 1 0 7.5 0 a3.75 3.75 0 1 0 -7.5 0z" fill="black"></path>
            <path d="M1271.25 825 a3.75 3.75 0 1 0 7.5 0 a3.75 3.75 0 1 0 -7.5 0zM1301.25 705 a3.75 3.75 0 1 0 7.5 0 a3.75 3.75 0 1 0 -7.5 0zM1331.25 855 a3.75 3.75 0 1 0 7.5 0 a3.75 3.75 0 1 0 -7.5 0zM1301.25 495 a3.75 3.75 0 1 0 7.5 0 a3.75 3.75 0 1 0 -7.5 0zM1211.25 165 a3.75 3.75 0 1 0 7.5 0 a3.75 3.75 0 1 0 -7.5 0zM1241.25 315 a3.75 3.75 0 1 0 7.5 0 a3.75 3.75 0 1 0 -7.5 0zM1271.25 435 a3.75 3.75 0 1 0 7.5 0 a3.75 3.75 0 1 0 -7.5 0zM1301.25 915 a3.75 3.75 0 1 0 7.5 0 a3.75 3.75 0 1 0 -7.5 0z" fill="black"></path>
            <path d="M551.25 915 a3.75 3.75 0 1 0 7.5 0 a3.75 3.75 0 1 0 -7.5 0zM551.25 855 a3.75 3.75 0 1 0 7.5 0 a3.75 3.75 0 1 0 -7.5 0zM551.25 765 a3.75 3.75 0 1 0 7.5 0 a3.75 3.75 0 1 0 -7.5 0zM551.25 705 a3.75 3.75 0 1 0 7.5 0 a3.75 3.75 0 1 0 -7.5 0zM521.25 765 a3.75 3.75 0 1 0 7.5 0 a3.75 3.75 0 1 0 -7.5 0zM521.25 945 a3.75 3.75 0 1 0 7.5 0 a3.75 3.75 0 1 0 -7.5 0z" fill="black"></path>
            <path d="M1331.25 1275 a3.75 3.75 0 1 0 7.5 0 a3.75 3.75 0 1 0 -7.5 0zM1391.25 885 a3.75 3.75 0 1 0 7.5 0 a3.75 3.75 0 1 0 -7.5 0zM1391.25 1185 a3.75 3.75 0 1 0 7.5 0 a3.75 3.75 0 1 0 -7.5 0zM1361.25 645 a3.75 3.75 0 1 0 7.5 0 a3.75 3.75 0 1 0 -7.5 0zM1331.25 1155 a3.75 3.75 0 1 0 7.5 0 a3.75 3.75 0 1 0 -7.5 0zM1271.25 135 a3.75 3.75 0 1 0 7.5 0 a3.75 3.75 0 1 0 -7.5 0zM1271.25 105 a3.75 3.75 0 1 0 7.5 0 a3.75 3.75 0 1 0 -7.5 0zM1391.25 675 a3.75 3.75 0 1 0 7.5 0 a3.75 3.75 0 1 0 -7.5 0zM1421.25 1395 a3.75 3.75 0 1 0 7.5 0 a3.75 3.75 0 1 0 -7.5 0zM1361.25 1275 a3.75 3.75 0 1 0 7.5 0 a3.75 3.75 0 1 0 -7.5 0zM1301.25 1335 a3.75 3.75 0 1 0 7.5 0 a3.75 3.75 0 1 0 -7.5 0zM1241.25 255 a3.75 3.75 0 1 0 7.5 0 a3.75 3.75 0 1 0 -7.5 0z" fill="black"></path>
            <path d="M521.25 855 a3.75 3.75 0 1 0 7.5 0 a3.75 3.75 0 1 0 -7.5 0zM521.25 645 a3.75 3.75 0 1 0 7.5 0 a3.75 3.75 0 1 0 -7.5 0zM551.25 555 a3.75 3.75 0 1 0 7.5 0 a3.75 3.75 0 1 0 -7.5 0zM521.25 615 a3.75 3.75 0 1 0 7.5 0 a3.75 3.75 0 1 0 -7.5 0zM491.25 885 a3.75 3.75 0 1 0 7.5 0 a3.75 3.75 0 1 0 -7.5 0zM461.25 915 a3.75 3.75 0 1 0 7.5 0 a3.75 3.75 0 1 0 -7.5 0zM461.25 735 a3.75 3.75 0 1 0 7.5 0 a3.75 3.75 0 1 0 -7.5 0z" fill="black"></path>
            <path d="M1451.25 1275 a3.75 3.75 0 1 0 7.5 0 a3.75 3.75 0 1 0 -7.5 0zM1511.25 1215 a3.75 3.75 0 1 0 7.5 0 a3.75 3.75 0 1 0 -7.5 0zM1451.25 1125 a3.75 3.75 0 1 0 7.5 0 a3.75 3.75 0 1 0 -7.5 0zM1421.25 825 a3.75 3.75 0 1 0 7.5 0 a3.75 3.75 0 1 0 -7.5 0zM1451.25 1215 a3.75 3.75 0 1 0 7.5 0 a3.75 3.75 0 1 0 -7.5 0zM1511.25 1185 a3.75 3.75 0 1 0 7.5 0 a3.75 3.75 0 1 0 -7.5 0zM1421.25 795 a3.75 3.75 0 1 0 7.5 0 a3.75 3.75 0 1 0 -7.5 0zM1391.25 615 a3.75 3.75 0 1 0 7.5 0 a3.75 3.75 0 1 0 -7.5 0zM1481.25 1395 a3.75 3.75 0 1 0 7.5 0 a3.75 3.75 0 1 0 -7.5 0zM1421.25 735 a3.75 3.75 0 1 0 7.5 0 a3.75 3.75 0 1 0 -7.5 0zM1451.25 975 a3.75 3.75 0 1 0 7.5 0 a3.75 3.75 0 1 0 -7.5 0z" fill="black"></path>
            <path d="M491.25 1335 a3.75 3.75 0 1 0 7.5 0 a3.75 3.75 0 1 0 -7.5 0zM461.25 1035 a3.75 3.75 0 1 0 7.5 0 a3.75 3.75 0 1 0 -7.5 0zM401.25 1395 a3.75 3.75 0 1 0 7.5 0 a3.75 3.75 0 1 0 -7.5 0zM491.25 1215 a3.75 3.75 0 1 0 7.5 0 a3.75 3.75 0 1 0 -7.5 0zM401.25 1245 a3.75 3.75 0 1 0 7.5 0 a3.75 3.75 0 1 0 -7.5 0zM401.25 975 a3.75 3.75 0 1 0 7.5 0 a3.75 3.75 0 1 0 -7.5 0zM521.25 1395 a3.75 3.75 0 1 0 7.5 0 a3.75 3.75 0 1 0 -7.5 0zM431.25 1365 a3.75 3.75 0 1 0 7.5 0 a3.75 3.75 0 1 0 -7.5 0zM551.25 255 a3.75 3.75 0 1 0 7.5 0 a3.75 3.75 0 1 0 -7.5 0zM341.25 1185 a3.75 3.75 0 1 0 7.5 0 a3.75 3.75 0 1 0 -7.5 0zM431.25 1215 a3.75 3.75 0 1 0 7.5 0 a3.75 3.75 0 1 0 -7.5 0zM461.25 705 a3.75 3.75 0 1 0 7.5 0 a3.75 3.75 0 1 0 -7.5 0z" fill="black"></path>
            <path d="M1511.25 1095 a3.75 3.75 0 1 0 7.5 0 a3.75 3.75 0 1 0 -7.5 0z" fill="black"></path>
            <path d="M371.25 915 a3.75 3.75 0 1 0 7.5 0 a3.75 3.75 0 1 0 -7.5 0zM401.25 885 a3.75 3.75 0 1 0 7.5 0 a3.75 3.75 0 1 0 -7.5 0z" fill="black"></path>
            <path d="M1541.25 1335 a3.75 3.75 0 1 0 7.5 0 a3.75 3.75 0 1 0 -7.5 0zM1421.25 555 a3.75 3.75 0 1 0 7.5 0 a3.75 3.75 0 1 0 -7.5 0zM1571.25 1395 a3.75 3.75 0 1 0 7.5 0 a3.75 3.75 0 1 0 -7.5 0zM1391.25 345 a3.75 3.75 0 1 0 7.5 0 a3.75 3.75 0 1 0 -7.5 0zM1391.25 135 a3.75 3.75 0 1 0 7.5 0 a3.75 3.75 0 1 0 -7.5 0zM1391.25 105 a3.75 3.75 0 1 0 7.5 0 a3.75 3.75 0 1 0 -7.5 0zM1541.25 1395 a3.75 3.75 0 1 0 7.5 0 a3.75 3.75 0 1 0 -7.5 0zM1511.25 1275 a3.75 3.75 0 1 0 7.5 0 a3.75 3.75 0 1 0 -7.5 0z" fill="black"></path>
            <path d="M521.25 165 a3.75 3.75 0 1 0 7.5 0 a3.75 3.75 0 1 0 -7.5 0z" fill="black"></path>
            <path d="M1421.25 195 a3.75 3.75 0 1 0 7.5 0 a3.75 3.75 0 1 0 -7.5 0zM1391.25 45 a3.75 3.75 0 1 0 7.5 0 a3.75 3.75 0 1 0 -7.5 0zM1391.25 195 a3.75 3.75 0 1 0 7.5 0 a3.75 3.75 0 1 0 -7.5 0z" fill="black"></path>
            <path d="M341.25 1275 a3.75 3.75 0 1 0 7.5 0 a3.75 3.75 0 1 0 -7.5 0zM341.25 1065 a3.75 3.75 0 1 0 7.5 0 a3.75 3.75 0 1 0 -7.5 0zM341.25 735 a3.75 3.75 0 1 0 7.5 0 a3.75 3.75 0 1 0 -7.5 0zM341.25 1155 a3.75 3.75 0 1 0 7.5 0 a3.75 3.75 0 1 0 -7.5 0zM431.25 525 a3.75 3.75 0 1 0 7.5 0 a3.75 3.75 0 1 0 -7.5 0zM281.25 1095 a3.75 3.75 0 1 0 7.5 0 a3.75 3.75 0 1 0 -7.5 0zM311.25 975 a3.75 3.75 0 1 0 7.5 0 a3.75 3.75 0 1 0 -7.5 0zM311.25 1395 a3.75 3.75 0 1 0 7.5 0 a3.75 3.75 0 1 0 -7.5 0zM281.25 1005 a3.75 3.75 0 1 0 7.5 0 a3.75 3.75 0 1 0 -7.5 0zM251.25 945 a3.75 3.75 0 1 0 7.5 0 a3.75 3.75 0 1 0 -7.5 0zM431.25 495 a3.75 3.75 0 1 0 7.5 0 a3.75 3.75 0 1 0 -7.5 0zM371.25 1395 a3.75 3.75 0 1 0 7.5 0 a3.75 3.75 0 1 0 -7.5 0z" fill="black"></path>
            <path d="M1601.25 1275 a3.75 3.75 0 1 0 7.5 0 a3.75 3.75 0 1 0 -7.5 0zM1631.25 1395 a3.75 3.75 0 1 0 7.5 0 a3.75 3.75 0 1 0 -7.5 0zM1511.25 555 a3.75 3.75 0 1 0 7.5 0 a3.75 3.75 0 1 0 -7.5 0zM1541.25 705 a3.75 3.75 0 1 0 7.5 0 a3.75 3.75 0 1 0 -7.5 0zM1481.25 375 a3.75 3.75 0 1 0 7.5 0 a3.75 3.75 0 1 0 -7.5 0zM1691.25 1335 a3.75 3.75 0 1 0 7.5 0 a3.75 3.75 0 1 0 -7.5 0zM1511.25 435 a3.75 3.75 0 1 0 7.5 0 a3.75 3.75 0 1 0 -7.5 0zM1481.25 225 a3.75 3.75 0 1 0 7.5 0 a3.75 3.75 0 1 0 -7.5 0zM1481.25 585 a3.75 3.75 0 1 0 7.5 0 a3.75 3.75 0 1 0 -7.5 0zM1511.25 525 a3.75 3.75 0 1 0 7.5 0 a3.75 3.75 0 1 0 -7.5 0zM1571.25 1185 a3.75 3.75 0 1 0 7.5 0 a3.75 3.75 0 1 0 -7.5 0zM1541.25 675 a3.75 3.75 0 1 0 7.5 0 a3.75 3.75 0 1 0 -7.5 0z" fill="black"></path>
            <path d="M371.25 585 a3.75 3.75 0 1 0 7.5 0 a3.75 3.75 0 1 0 -7.5 0zM371.25 555 a3.75 3.75 0 1 0 7.5 0 a3.75 3.75 0 1 0 -7.5 0zM371.25 465 a3.75 3.75 0 1 0 7.5 0 a3.75 3.75 0 1 0 -7.5 0zM371.25 525 a3.75 3.75 0 1 0 7.5 0 a3.75 3.75 0 1 0 -7.5 0zM431.25 375 a3.75 3.75 0 1 0 7.5 0 a3.75 3.75 0 1 0 -7.5 0zM371.25 375 a3.75 3.75 0 1 0 7.5 0 a3.75 3.75 0 1 0 -7.5 0z" fill="black"></path>
            <path d="M1571.25 885 a3.75 3.75 0 1 0 7.5 0 a3.75 3.75 0 1 0 -7.5 0zM1541.25 165 a3.75 3.75 0 1 0 7.5 0 a3.75 3.75 0 1 0 -7.5 0zM1511.25 345 a3.75 3.75 0 1 0 7.5 0 a3.75 3.75 0 1 0 -7.5 0zM1601.25 705 a3.75 3.75 0 1 0 7.5 0 a3.75 3.75 0 1 0 -7.5 0zM1661.25 1065 a3.75 3.75 0 1 0 7.5 0 a3.75 3.75 0 1 0 -7.5 0zM1601.25 825 a3.75 3.75 0 1 0 7.5 0 a3.75 3.75 0 1 0 -7.5 0zM1541.25 375 a3.75 3.75 0 1 0 7.5 0 a3.75 3.75 0 1 0 -7.5 0zM1661.25 915 a3.75 3.75 0 1 0 7.5 0 a3.75 3.75 0 1 0 -7.5 0z" fill="black"></path>
            <path d="M341.25 645 a3.75 3.75 0 1 0 7.5 0 a3.75 3.75 0 1 0 -7.5 0zM311.25 375 a3.75 3.75 0 1 0 7.5 0 a3.75 3.75 0 1 0 -7.5 0zM371.25 645 a3.75 3.75 0 1 0 7.5 0 a3.75 3.75 0 1 0 -7.5 0zM311.25 495 a3.75 3.75 0 1 0 7.5 0 a3.75 3.75 0 1 0 -7.5 0zM311.25 645 a3.75 3.75 0 1 0 7.5 0 a3.75 3.75 0 1 0 -7.5 0zM281.25 375 a3.75 3.75 0 1 0 7.5 0 a3.75 3.75 0 1 0 -7.5 0z" fill="black"></path>
        </mask>
    </defs>
</svg>